<?xml version="1.0" encoding="UTF-8"?>
<!DOCTYPE svg PUBLIC "-//W3C//DTD SVG 1.1//EN" "http://www.w3.org/Graphics/SVG/1.1/DTD/svg11.dtd">
<!-- Creator: CorelDRAW X7 -->
<svg xmlns="http://www.w3.org/2000/svg" xml:space="preserve" width="2560px" height="2560px" version="1.1" style="shape-rendering:geometricPrecision; text-rendering:geometricPrecision; image-rendering:optimizeQuality; fill-rule:evenodd; clip-rule:evenodd"
viewBox="0 0 2560 2560"
 xmlns:xlink="http://www.w3.org/1999/xlink"
 xmlns:dc="http://purl.org/dc/elements/1.1/"
 xmlns:cc="http://creativecommons.org/ns#"
 xmlns:rdf="http://www.w3.org/1999/02/22-rdf-syntax-ns#"
 xmlns:svg="http://www.w3.org/2000/svg">
 <defs>
  <style type="text/css">
   <![CDATA[
    .fil9 {fill:none}
    .fil2 {fill:#002538}
    .fil1 {fill:#012C42}
    .fil12 {fill:#36474F}
    .fil14 {fill:#455A64}
    .fil8 {fill:#C7C5C5}
    .fil5 {fill:#CF1F42}
    .fil0 {fill:#E2E2E2}
    .fil4 {fill:#E6284E}
    .fil11 {fill:#E66B6E}
    .fil10 {fill:#ECAB8B}
    .fil6 {fill:white}
    .fil15 {fill:#332C2B;fill-rule:nonzero}
    .fil7 {fill:#FFF5F4;fill-rule:nonzero}
    .fil3 {fill:white;fill-rule:nonzero}
    .fil13 {fill:url(#id0)}
   ]]>
  </style>
  <linearGradient id="id0" gradientUnits="userSpaceOnUse" x1="1214.79" y1="1772.32" x2="1214.79" y2="1651.56">
   <stop offset="0" style="stop-opacity:1; stop-color:#F68712"/>
   <stop offset="0.478431" style="stop-opacity:1; stop-color:#ED127B"/>
   <stop offset="1" style="stop-opacity:1; stop-color:#ED127B"/>
  </linearGradient>
 </defs>
 <g id="Layer_x0020_1">
  <metadata id="CorelCorpID_0Corel-Layer"/>
  <circle class="fil0" cx="1125" cy="1915" r="385"/>
  <circle class="fil0" cx="746" cy="1190" r="470"/>
  <circle class="fil0" cx="1647" cy="771" r="662"/>
  <circle class="fil0" cx="1662" cy="1623" r="385"/>
  <g id="_56893864">
   <circle class="fil1" cx="686" cy="814" r="215"/>
   <g>
    <path class="fil2" d="M924 858c-10,0 -19,1 -28,3 3,-15 5,-31 5,-47 0,-119 -96,-215 -215,-215l0 430c44,0 85,-13 119,-36 7,59 58,105 119,105 66,0 120,-54 120,-120 0,-66 -54,-120 -120,-120z"/>
    <path class="fil3" d="M882 963c5,0 8,-4 8,-9l0 -18c0,-6 -3,-9 -8,-9 -6,0 -9,3 -9,9l0 18c0,5 3,9 9,9zm0 -5c-2,0 -3,-1 -3,-4l0 -19c0,-2 1,-3 3,-3 1,0 2,1 2,3l0 19c0,3 -1,4 -2,4z"/>
    <polygon id="1" class="fil3" points="894,962 898,962 898,937 899,937 905,962 911,962 911,927 906,927 906,948 906,948 900,927 894,927 "/>
    <polygon id="2" class="fil3" points="915,962 929,962 929,957 920,957 920,927 915,927 "/>
    <polygon id="3" class="fil3" points="932,962 937,962 937,927 932,927 "/>
    <polygon id="4" class="fil3" points="941,962 946,962 946,937 946,937 953,962 959,962 959,927 954,927 954,948 954,948 948,927 941,927 "/>
    <polygon id="5" class="fil3" points="963,962 978,962 978,957 968,957 968,946 976,946 976,941 968,941 968,932 978,932 978,927 963,927 "/>
    <polygon id="6" class="fil3" points="829,1022 834,1022 834,992 840,992 840,987 823,987 823,992 829,992 "/>
    <path id="7" class="fil3" d="M843 1022l5 0 0 -15 2 0c2,0 3,1 3,4l0 6c0,3 1,4 1,5l5 0c0,-2 0,-3 0,-4l0 -7c0,-4 -1,-6 -4,-7l0 0c3,-1 4,-3 4,-7l0 -2c0,-5 -3,-8 -8,-8l-8 0 0 35zm5 -20l0 -10 3 0c2,0 2,1 2,3l0 3c0,3 -1,4 -3,4l-2 0z"/>
    <path id="8" class="fil3" d="M861 1022l5 0 1 -7 6 0 0 0 1 7 6 0 -6 -35 -7 0 -6 35zm7 -12l2 -17 0 0 3 17 -5 0z"/>
    <polygon id="9" class="fil3" points="883,1022 887,1022 887,996 888,996 894,1022 900,1022 900,987 895,987 895,1008 895,1008 889,987 883,987 "/>
    <path id="10" class="fil3" d="M911 1022c5,0 8,-3 8,-9 0,-4 -1,-7 -6,-11 -3,-3 -5,-5 -5,-7 0,-3 1,-4 3,-4 2,0 3,1 3,4l0 2 5 0 0 -2c0,-5 -3,-9 -8,-9 -5,0 -8,4 -8,9 0,4 1,7 6,11 4,3 5,5 5,8 0,2 -1,3 -3,3 -2,0 -3,-1 -3,-3l0 -2 -5 0 0 1c0,6 3,9 8,9z"/>
    <path id="11" class="fil3" d="M921 1022l5 0 1 -7 6 0 0 0 1 7 6 0 -6 -35 -8 0 -5 35zm6 -12l3 -17 0 0 2 17 -5 0z"/>
    <path id="12" class="fil3" d="M950 1022c5,0 8,-3 8,-8l0 -5 -5 0 0 5c0,2 -1,3 -3,3 -2,0 -3,-1 -3,-3l0 -19c0,-3 1,-4 3,-4 2,0 3,1 3,4l0 4 5 0 0 -4c0,-5 -3,-9 -8,-9 -6,0 -8,4 -8,9l0 19c0,5 2,8 8,8z"/>
    <polygon id="13" class="fil3" points="965,1022 971,1022 971,992 977,992 977,987 960,987 960,992 965,992 "/>
    <polygon id="14" class="fil3" points="979,1022 985,1022 985,987 979,987 "/>
    <path id="15" class="fil3" d="M997 1022c5,0 8,-3 8,-9l0 -18c0,-5 -3,-9 -8,-9 -6,0 -9,4 -9,9l0 18c0,6 3,9 9,9zm0 -5c-2,0 -3,-1 -3,-3l0 -19c0,-3 1,-4 3,-4 1,0 2,1 2,4l0 19c0,2 -1,3 -2,3z"/>
    <polygon id="16" class="fil3" points="1009,1022 1014,1022 1014,996 1014,996 1020,1022 1026,1022 1026,987 1021,987 1021,1008 1021,1008 1016,987 1009,987 "/>
   </g>
   <path class="fil4" d="M593 896l177 0c1,0 2,-1 2,-2l0 0c0,-1 -1,-2 -2,-2l-167 0 -12 -161c0,-1 -1,-2 -3,-3 0,0 0,0 -1,0l-40 0c-2,0 -3,2 -3,4l0 0c0,2 1,3 3,3l32 0 12 158c0,0 0,1 0,1l0 0 0 0c0,1 1,2 2,2z"/>
   <path class="fil4" d="M773 858l-168 0c-1,0 -2,1 -2,2l0 0c0,1 1,2 2,2l171 0c0,0 0,0 0,0l0 0c3,1 5,-1 5,-3l19 -99c0,0 0,-1 -1,-2 0,0 0,0 0,0l0 0c0,-1 -1,-2 -2,-2l-200 0c-1,0 -2,1 -2,2l0 0c0,1 1,2 2,2l195 0 -19 98z"/>
   <g>
    <circle class="fil2" cx="631" cy="941" r="19"/>
    <circle class="fil4" cx="629" cy="938" r="19"/>
    <g>
     <path class="fil3" d="M620 932c1,1 0,2 -1,3 -1,0 -2,-1 -3,-2l4 -1zm-4 -1l4 0 0 0 0 0 0 0 0 0 0 0 0 0 0 0 0 0 0 0 0 0 0 0 0 0 0 0 0 0 0 0 0 0 0 0 0 0 0 0 0 0 0 0 0 1 0 0 0 0 0 0 0 0 0 0 0 0 0 0 0 0 0 0 0 0 0 0 -4 1 0 0 0 0 0 0 0 0 0 0 0 0 0 0 0 0 0 0 0 0 0 -1 0 0 0 0 0 0 0 0 0 0 0 0 0 0 0 0 0 0 0 0 0 0 0 -1 0 0 0 0 0 0 0 0 0 0 0 0 0 0 0 0 0 0 0 0zm7 -8l0 4 0 0 0 0 0 0 0 0 0 0 -1 0 0 0 0 0 0 1 0 0 0 0 0 0 -1 0 0 0 0 0 0 0 0 0 0 0 0 1 0 0 -1 0 0 0 0 0 0 0 0 0 0 1 0 0 0 0 0 0 0 0 0 0 0 1 0 0 -4 0 0 -1 0 0 0 0 0 -1 0 0 0 -1 0 0 1 0 0 -1 0 0 0 0 0 0 0 -1 1 0 0 0 0 -1 0 0 1 0 0 0 0 0 0 -1 1 0 0 0 0 0 1 0 0 0 0 0 1 -1 0 0 1 0 0 0 0 0 0 0zm3 1l-2 3 0 0 0 0 0 0 0 0 0 0 0 0 0 0 0 0 0 0 0 0 0 0 0 0 0 0 0 0 0 0 0 0 0 0 0 0 0 0 0 0 0 0 0 0 0 0 0 0 0 0 0 0 -1 0 0 0 0 0 0 0 0 0 0 0 0 -4 0 0 0 0 1 0 0 0 0 0 0 0 0 0 0 0 0 0 0 0 0 0 0 0 0 0 0 0 0 0 1 0 0 0 0 0 0 0 0 0 0 0 0 0 0 1 0 0 0 0 0 0 0 0 0 0 1 0 0 0 0 0 0 0zm0 0c1,0 1,1 1,2 0,1 -2,2 -3,1l2 -3z"/>
    </g>
    <path class="fil5" d="M629 957l0 -38c11,0 19,8 19,19 0,11 -8,19 -19,19z"/>
   </g>
   <g id="_56894944">
    <circle class="fil2" cx="748" cy="941" r="19"/>
    <circle class="fil4" cx="746" cy="938" r="19"/>
    <g>
     <path class="fil3" d="M739 932c0,1 0,2 -1,3 -1,0 -2,-1 -3,-2l4 -1zm-4 -1l4 0 0 0 0 0 0 0 0 0 0 0 0 0 0 0 0 0 0 0 0 0 0 0 0 0 0 0 0 0 0 0 0 0 0 0 0 0 0 0 0 0 0 0 0 1 0 0 0 0 0 0 0 0 0 0 0 0 0 0 0 0 0 0 0 0 0 0 -4 1 0 0 0 0 0 0 0 0 0 0 0 0 0 0 0 0 0 0 0 0 0 -1 0 0 0 0 0 0 0 0 0 0 0 0 0 0 0 0 0 0 0 0 0 0 0 -1 0 0 0 0 0 0 0 0 0 0 0 0 0 0 0 0 0 0 0 0zm7 -8l0 4 0 0 0 0 0 0 -1 0 0 0 0 0 0 0 0 0 0 1 0 0 -1 0 0 0 0 0 0 0 0 0 0 0 0 0 -1 0 0 1 0 0 0 0 0 0 0 0 0 0 0 0 0 1 0 0 0 0 0 0 0 0 0 0 0 1 0 0 -4 0 0 -1 0 0 0 0 0 -1 0 0 0 -1 0 0 0 0 0 -1 0 0 1 0 0 0 0 -1 0 0 1 0 0 -1 0 0 0 0 1 0 0 0 0 -1 0 0 1 0 0 0 0 0 1 0 0 0 1 -1 0 0 0 0 1 0 0 0 0 0zm2 1l-1 3 0 0 0 0 0 0 0 0 0 0 0 0 0 0 0 0 0 0 0 0 0 0 0 0 0 0 0 0 0 0 0 0 0 0 -1 0 0 0 0 0 0 0 0 0 0 0 0 0 0 0 0 0 0 0 0 0 0 0 0 0 0 0 0 0 0 -4 0 0 0 0 0 0 0 0 0 0 0 0 1 0 0 0 0 0 0 0 0 0 0 0 0 0 0 0 0 0 0 0 0 0 0 0 0 0 1 0 0 0 0 0 0 1 0 0 0 0 0 0 0 0 0 0 0 0 0 0 0 0 0 0zm0 0c1,0 2,1 2,2 -1,1 -2,2 -3,1l1 -3z"/>
    </g>
    <path class="fil5" d="M746 957l0 -38c11,0 19,8 19,19 0,11 -8,19 -19,19z"/>
   </g>
   <path class="fil4" d="M842 742c0,4 -1,7 -2,11 -6,26 -32,41 -58,34 -25,-6 -41,-32 -34,-58 5,-21 25,-36 47,-36 4,0 7,1 11,2 21,5 36,25 36,47l0 0z"/>
   <path class="fil6" d="M794 716l5 0c1,0 2,1 2,2l0 50c0,1 -1,2 -2,2l-5 0c-2,0 -3,-1 -3,-2l0 -37 -5 4c-1,1 -3,1 -3,0l-4 -4c-1,-1 0,-3 1,-4l11 -9c0,-2 1,-2 3,-2z"/>
  </g>
  <g>
   <circle class="fil1" cx="1754" cy="755" r="215"/>
   <path class="fil2" d="M1754 970l0 -429c28,0 55,5 80,15 -1,-7 -2,-14 -2,-21 0,-77 62,-138 138,-138 76,0 138,61 138,138 0,76 -62,138 -138,138 -6,0 -12,-1 -18,-2 11,26 17,55 17,84 0,119 -96,215 -215,215z"/>
   <polygon class="fil7" points="1602,788 1638,788 1638,776 1615,776 1615,750 1633,750 1633,738 1615,738 1615,716 1638,716 1638,704 1602,704 "/>
   <polygon id="1" class="fil7" points="1644,752 1670,752 1670,740 1644,740 "/>
   <polygon id="2" class="fil7" points="1680,788 1693,788 1693,716 1707,716 1707,704 1666,704 1666,716 1680,716 "/>
   <polygon id="3" class="fil7" points="1713,788 1727,788 1727,704 1713,704 "/>
   <path id="4" class="fil7" d="M1755 790c13,0 20,-8 20,-21l0 -12 -13 0 0 13c0,5 -3,8 -7,8 -4,0 -6,-3 -6,-8l0 -47c0,-6 2,-8 6,-8 4,0 7,2 7,8l0 9 13 0 0 -8c0,-13 -7,-21 -20,-21 -13,0 -19,8 -19,21l0 45c0,13 6,21 19,21z"/>
   <polygon id="5" class="fil7" points="1783,788 1796,788 1796,762 1801,751 1812,788 1826,788 1810,735 1826,704 1813,704 1796,740 1796,704 1783,704 "/>
   <polygon id="6" class="fil7" points="1832,788 1869,788 1869,776 1846,776 1846,750 1864,750 1864,738 1846,738 1846,716 1869,716 1869,704 1832,704 "/>
   <polygon id="7" class="fil7" points="1887,788 1900,788 1900,716 1914,716 1914,704 1873,704 1873,716 1887,716 "/>
   <path class="fil3" d="M1920 513c7,0 10,-4 10,-10l0 -20c0,-7 -3,-10 -10,-10 -6,0 -10,3 -10,10l0 20c0,6 4,10 10,10zm0 -6c-2,0 -3,-1 -3,-3l0 -22c0,-3 1,-4 3,-4 2,0 4,1 4,4l0 22c0,2 -2,3 -4,3z"/>
   <polygon id="1" class="fil3" points="1934,512 1940,512 1940,484 1940,484 1948,512 1955,512 1955,473 1949,473 1949,497 1949,497 1943,473 1934,473 "/>
   <polygon id="2" class="fil3" points="1960,512 1977,512 1977,507 1966,507 1966,473 1960,473 "/>
   <polygon id="3" class="fil3" points="1980,512 1986,512 1986,473 1980,473 "/>
   <polygon id="4" class="fil3" points="1991,512 1997,512 1997,484 1997,484 2005,512 2012,512 2012,473 2006,473 2006,497 2006,497 1999,473 1991,473 "/>
   <polygon id="5" class="fil3" points="2016,512 2034,512 2034,507 2023,507 2023,495 2032,495 2032,489 2023,489 2023,479 2034,479 2034,473 2016,473 "/>
   <path id="6" class="fil3" d="M1868 579l6 0 0 -16 2 0c3,0 4,1 4,4l0 7c0,4 1,4 1,5l7 0c-1,-1 -1,-3 -1,-4l0 -7c0,-5 -1,-8 -4,-9l0 0c3,-1 4,-3 4,-7l0 -3c0,-6 -3,-9 -10,-9l-9 0 0 39zm6 -22l0 -11 3 0c2,0 3,1 3,4l0 3c0,3 -1,4 -3,4l-3 0z"/>
   <polygon id="7" class="fil3" points="1891,579 1909,579 1909,574 1898,574 1898,562 1907,562 1907,556 1898,556 1898,546 1909,546 1909,540 1891,540 "/>
   <path id="8" class="fil3" d="M1922 580c6,0 10,-4 10,-10l0 -13 -10 0 0 6 4 0 0 7c0,3 -2,4 -4,4 -2,0 -3,-1 -3,-4l0 -21c0,-3 1,-4 3,-4 2,0 4,1 4,4l0 4 6 0 0 -3c0,-7 -4,-10 -10,-10 -6,0 -10,3 -10,10l0 20c0,6 4,10 10,10z"/>
   <polygon id="9" class="fil3" points="1936,579 1942,579 1942,540 1936,540 "/>
   <path id="10" class="fil3" d="M1956 580c6,0 9,-4 9,-10 0,-5 -1,-8 -7,-13 -4,-3 -5,-5 -5,-8 0,-3 1,-4 3,-4 2,0 3,1 3,4l0 2 6 0 0 -1c0,-7 -3,-10 -9,-10 -6,0 -10,3 -10,9 0,5 2,8 7,13 5,3 6,5 6,8 0,3 -1,4 -3,4 -3,0 -4,-1 -4,-4l0 -2 -6 0 0 2c0,6 3,10 10,10z"/>
   <polygon id="11" class="fil3" points="1974,579 1981,579 1981,546 1987,546 1987,540 1967,540 1967,546 1974,546 "/>
   <polygon id="12" class="fil3" points="1991,579 2008,579 2008,574 1997,574 1997,562 2006,562 2006,556 1997,556 1997,546 2008,546 2008,540 1991,540 "/>
   <path id="13" class="fil3" d="M2012 579l6 0 0 -16 3 0c3,0 4,1 4,4l0 7c0,4 0,4 0,5l7 0c-1,-1 -1,-3 -1,-4l0 -7c0,-5 -1,-8 -4,-9l0 0c3,-1 4,-3 4,-7l0 -3c0,-6 -3,-9 -9,-9l-10 0 0 39zm6 -22l0 -11 3 0c3,0 4,1 4,4l0 3c0,3 -2,4 -4,4l-3 0z"/>
   <polygon id="14" class="fil3" points="2036,579 2053,579 2053,574 2042,574 2042,562 2051,562 2051,556 2042,556 2042,546 2053,546 2053,540 2036,540 "/>
   <path id="15" class="fil3" d="M2057 579l10 0c7,0 10,-3 10,-9l0 -20c0,-6 -3,-10 -10,-10l-10 0 0 39zm7 -5l0 -28 3 0c2,0 3,1 3,4l0 20c0,3 -1,4 -3,4l-3 0z"/>
  </g>
  <g>
   <circle class="fil8" cx="1119" cy="756" r="28"/>
   <circle class="fil8" cx="1363" cy="756" r="28"/>
   <circle class="fil8" cx="1363" cy="757" r="16"/>
   <circle class="fil8" cx="1120" cy="757" r="16"/>
   <ellipse class="fil8" cx="1146" cy="706" rx="32" ry="30"/>
   <ellipse class="fil8" cx="1332" cy="697" rx="32" ry="30"/>
   <ellipse class="fil8" cx="1242" cy="762" rx="125" ry="143"/>
   <ellipse class="fil8" cx="1242" cy="762" rx="116" ry="133"/>
   <path class="fil8" d="M1340 833c-20,37 -57,62 -98,62 -42,0 -78,-25 -99,-63 21,-37 57,-62 98,-62 42,0 79,26 99,63z"/>
   <circle class="fil8" cx="1191" cy="753" r="13"/>
   <circle class="fil8" cx="1302" cy="753" r="13"/>
   <rect class="fil8" transform="matrix(-2.32581E-014 -0.864061 -0.864061 2.32581E-014 1258.21 814.466)" width="102" height="33.0001" rx="17" ry="17"/>
   <rect class="fil8" transform="matrix(-2.32581E-014 -0.864061 -0.864061 2.32581E-014 1258.21 808.849)" width="102" height="33.0001" rx="17" ry="17"/>
   <ellipse class="fil8" cx="1245" cy="845" rx="31" ry="28"/>
   <path class="fil8" d="M1272 859c-6,9 -16,14 -27,14 -11,0 -21,-5 -26,-14 5,-8 15,-14 26,-14 11,0 21,6 27,14z"/>
   <path class="fil8" d="M1245 817c13,0 24,8 29,18l-57 0c4,-10 15,-18 28,-18z"/>
   <g>
    <path class="fil8" d="M1233 736c1,-7 4,-11 11,-12 1,0 2,1 2,2 0,1 -1,2 -2,2 -5,1 -7,3 -7,8 0,1 -1,1 -2,1 -1,0 -2,0 -2,-1z"/>
   </g>
   <path class="fil9" d="M1235 736c0,-5 4,-10 9,-10"/>
   <ellipse class="fil8" cx="1169" cy="653" rx="48" ry="46"/>
   <ellipse class="fil8" cx="1274" cy="616" rx="83" ry="79"/>
   <ellipse class="fil8" cx="1185" cy="669" rx="32" ry="30"/>
  </g>
  <g>
   <circle class="fil10" cx="1105" cy="736" r="28"/>
   <circle class="fil10" cx="1348" cy="736" r="28"/>
   <circle class="fil11" cx="1348" cy="737" r="16"/>
   <circle class="fil11" cx="1105" cy="737" r="16"/>
   <ellipse class="fil12" cx="1131" cy="686" rx="32" ry="30"/>
   <ellipse class="fil12" cx="1317" cy="677" rx="32" ry="30"/>
   <ellipse class="fil2" cx="1227" cy="741" rx="125" ry="143"/>
   <ellipse class="fil10" cx="1227" cy="741" rx="116" ry="133"/>
   <path class="fil2" d="M1325 813c-20,37 -56,61 -98,61 -41,0 -78,-25 -99,-63 21,-36 57,-61 98,-61 42,0 79,25 99,63z"/>
   <circle class="fil2" cx="1176" cy="732" r="13"/>
   <circle class="fil2" cx="1287" cy="732" r="13"/>
   <rect class="fil4" transform="matrix(-2.32581E-014 -0.864061 -0.864061 2.32581E-014 1243.3 794.178)" width="102" height="33.0001" rx="17" ry="17"/>
   <rect class="fil11" transform="matrix(-2.32581E-014 -0.864061 -0.864061 2.32581E-014 1243.3 788.562)" width="102" height="33.0001" rx="17" ry="17"/>
   <ellipse class="fil12" cx="1230" cy="825" rx="31" ry="28"/>
   <path class="fil4" d="M1257 839c-6,9 -16,14 -27,14 -11,0 -21,-5 -26,-14 5,-8 15,-14 26,-14 11,0 21,6 27,14z"/>
   <path class="fil6" d="M1230 797c13,0 24,8 29,18l-57 0c4,-10 15,-18 28,-18z"/>
   <g>
    <path class="fil6" d="M1218 715c1,-7 4,-10 11,-11 1,0 2,1 2,2 0,1 -1,2 -2,2 -4,1 -7,3 -7,7 0,1 -1,2 -2,2 -1,0 -2,-1 -2,-2z"/>
   </g>
   <path class="fil9" d="M1220 715c0,-5 4,-9 9,-9"/>
   <ellipse class="fil2" cx="1154" cy="633" rx="48" ry="46"/>
   <ellipse class="fil2" cx="1259" cy="596" rx="83" ry="79"/>
   <ellipse class="fil2" cx="1170" cy="649" rx="32" ry="30"/>
  </g>
  <g>
   <path class="fil6" d="M1121 617c1,-13 7,-19 20,-21 2,0 4,2 4,5 0,2 -2,4 -4,4 -7,1 -10,5 -11,12 0,2 -2,4 -4,4 -3,0 -5,-2 -5,-4z"/>
  </g>
  <path class="fil9" d="M1126 617c0,-9 6,-16 15,-16"/>
  <g>
   <path class="fil6" d="M1207 565c2,-21 13,-31 33,-34 3,0 6,3 6,6 0,2 -3,5 -5,5 -15,2 -22,9 -23,23 0,3 -3,5 -6,5 -2,0 -5,-2 -5,-5z"/>
  </g>
  <path class="fil9" d="M1212 565c0,-15 13,-28 29,-28"/>
  <rect class="fil2" x="1179" y="971" width="373" height="221" rx="42" ry="42"/>
  <path class="fil6" d="M1324 1141c6,-1 96,-52 99,-55 -9,-7 -92,-57 -98,-58l-1 113z"/>
  <path id="freepik--musical-note--inject-35" class="fil4" d="M623 1234l1 127c-3,-1 -7,-2 -11,-2 -13,1 -25,9 -30,21 -7,17 1,36 18,43 17,8 36,0 43,-17 2,-5 3,-9 3,-14l-1 -114 114 -31 0 0 2 113c-4,-2 -7,-2 -11,-2 -13,0 -25,8 -30,20 -8,17 0,37 17,44 17,7 37,-1 44,-18 2,-4 2,-9 2,-13l0 0 -2 -189 -159 32z"/>
  <path class="fil4" d="M1546 1444c10,14 16,32 16,50l0 764c0,49 -41,90 -90,90l-367 0c-46,0 -85,-36 -89,-82 -10,-15 -16,-32 -16,-50l0 -764c0,-50 41,-90 90,-90l367 0c46,0 85,36 89,82z"/>
  <polygon class="fil4" points="951,2239 1045,2325 1045,2179 "/>
  <polygon class="fil4" points="1511,1382 1418,1467 1422,1317 "/>
  <rect class="fil8" x="940" y="1349" width="546" height="944" rx="90" ry="90"/>
  <rect class="fil6" x="925" y="1307" width="546" height="944" rx="90" ry="90"/>
  <rect class="fil2" x="995" y="1428" width="410" height="729"/>
  <circle class="fil2" cx="1151" cy="1391" r="20"/>
  <rect class="fil2" x="1184" y="1385" width="112.2" height="10.5154" rx="5" ry="5"/>
  <rect class="fil2" x="1174" y="2262" width="84.678" height="15.5531"/>
  <path id="not_x0020_balok" class="fil4" d="M1690 294l-22 72c-2,-1 -4,-3 -6,-3 -2,-1 -4,-1 -5,-1 -11,0 -20,9 -20,20 0,10 9,19 20,19 8,0 16,-6 18,-14l20 -64 69 3 0 0 -19 63c-2,-1 -4,-2 -6,-3 -2,0 -3,-1 -5,-1 -11,0 -20,9 -20,20 0,11 9,19 20,19 8,0 16,-5 18,-13l0 0 32 -107 -94 -10z"/>
  <path id="not_x0020_balok_0" class="fil4" d="M2594 2133l-22 71c-2,-1 -4,-2 -6,-3 -2,0 -4,-1 -5,-1 -11,0 -20,9 -20,20 0,11 9,20 20,20 8,0 16,-6 18,-14l20 -64 69 2 0 0 -19 64c-2,-2 -4,-3 -6,-3 -2,-1 -3,-1 -5,-1 -11,0 -20,9 -20,19 0,11 9,20 20,20 8,0 16,-6 18,-14l0 0 32 -106 -94 -10z"/>
  <path id="not_x0020_balok_1" class="fil4" d="M1500 548c4,-2 9,-4 14,-4 0,0 1,0 1,0 6,0 12,1 18,2 9,3 17,4 26,5 1,0 1,0 2,0 8,0 16,-3 22,-8 -1,0 -2,0 -3,0 -4,0 -8,-1 -12,-2 -12,-5 -21,-17 -31,-23 -15,-10 -31,-9 -49,-4 0,16 -1,32 -1,48l0 37c0,1 -1,17 -1,17 -4,-2 -9,-3 -14,-3 0,0 0,0 0,0 -15,0 -27,12 -27,26 0,15 12,27 27,27 15,0 27,-12 27,-26l1 -92z"/>
  <path id="not_x0020_balok_2" class="fil4" d="M1299 264c2,-5 5,-9 9,-13 5,-5 11,-9 18,-12 8,-4 16,-9 24,-14 8,-6 13,-15 14,-24 -4,4 -9,7 -14,9 -12,4 -28,1 -42,3 -19,3 -31,14 -43,31 11,14 22,27 33,40l27 31c0,1 11,15 11,15 -5,1 -10,3 -14,7 -6,5 -10,13 -10,22 0,16 13,29 29,29 16,0 29,-13 29,-29 0,-7 -2,-14 -7,-19l-64 -76z"/>
  <g>
   <path id="text14" class="fil3" d="M1057 1717c-1,0 -1,0 -1,0 0,1 0,1 -1,1 0,0 -1,0 -1,-1 0,0 -1,0 -1,0 -1,-1 -2,-1 -2,-1 -1,0 -2,-1 -3,-1 -1,0 -2,1 -2,1 -1,0 -1,0 -2,1 0,0 -1,0 -1,1 0,0 0,1 0,2 0,0 0,1 0,1 1,1 1,1 2,2 1,0 2,0 3,1 1,0 2,0 3,1 1,0 2,0 3,1 1,0 2,1 2,1 1,1 2,2 2,3 1,1 1,2 1,3 0,1 0,3 -1,4 0,1 -1,2 -2,3 -1,1 -3,2 -4,3 -2,0 -3,0 -5,0 -1,0 -3,0 -4,0 -1,0 -2,0 -3,-1 -1,0 -2,-1 -2,-1 -1,-1 -2,-1 -3,-2l2 -3c0,0 0,0 1,0 0,0 0,0 1,0 0,0 0,0 1,0 0,0 1,1 2,1 0,0 1,1 2,1 1,0 2,1 3,1 2,0 3,-1 4,-2 1,0 2,-2 2,-3 0,-1 0,-2 -1,-2 0,-1 -1,-1 -2,-2 -1,0 -1,0 -2,0 -1,-1 -2,-1 -3,-1 -1,-1 -2,-1 -3,-1 -1,-1 -2,-1 -3,-2 -1,-1 -1,-2 -2,-3 0,-1 0,-2 0,-3 0,-1 0,-3 0,-4 1,-1 2,-2 3,-3 1,0 2,-1 3,-2 2,0 3,0 5,0 2,0 4,0 6,0 2,1 3,2 4,3l-1 3z"/>
   <polygon id="1" class="fil3" points="1084,1711 1084,1716 1074,1716 1074,1743 1067,1743 1067,1716 1057,1716 1057,1711 "/>
   <path id="2" class="fil3" d="M1093 1730l0 13 -7 0 0 -32 11 0c2,0 4,0 6,1 2,0 3,1 4,1 1,1 2,2 3,3 0,2 0,3 0,4 0,1 0,2 0,3 -1,1 -1,2 -2,3 0,1 -1,1 -2,2 -1,1 -2,1 -3,1 0,1 1,1 2,2l9 12 -6 0c-1,0 -1,0 -2,0 0,0 -1,-1 -1,-1l-7 -10c0,-1 -1,-1 -1,-1 0,0 -1,-1 -2,-1l-2 0zm0 -4l4 0c1,0 2,0 3,0 1,-1 2,-1 2,-1 1,-1 1,-1 2,-2 0,-1 0,-2 0,-2 0,-2 -1,-3 -2,-4 -1,-1 -3,-1 -5,-1l-4 0 0 10z"/>
   <polygon id="3" class="fil3" points="1135,1711 1135,1716 1119,1716 1119,1725 1132,1725 1132,1729 1119,1729 1119,1738 1135,1738 1135,1743 1113,1743 1113,1711 "/>
   <polygon id="4" class="fil3" points="1160,1711 1160,1716 1144,1716 1144,1725 1156,1725 1156,1729 1144,1729 1144,1738 1160,1738 1160,1743 1138,1743 1138,1711 "/>
   <polygon id="5" class="fil3" points="1186,1711 1186,1716 1175,1716 1175,1743 1169,1743 1169,1716 1158,1716 1158,1711 "/>
   <path id="text18" class="fil3" d="M1280 1741c1,0 3,0 4,0 1,-1 2,-2 3,-3 0,0 1,-2 1,-3 1,-1 1,-2 1,-4l0 -19 2 0 0 19c0,2 0,3 -1,5 0,1 -1,3 -2,4 -1,1 -2,2 -3,3 -2,0 -3,0 -5,0 -2,0 -3,0 -5,0 -1,-1 -2,-2 -3,-3 -1,-1 -2,-3 -3,-4 0,-2 -1,-3 -1,-5l0 -19 3 0 0 19c0,2 0,3 0,4 1,1 1,3 2,3 1,1 2,2 3,3 1,0 2,0 4,0z"/>
   <path id="1" class="fil3" d="M1317 1715c0,1 0,1 0,1 0,0 0,0 -1,-1 0,0 0,0 -1,0 0,-1 -1,-1 -2,-1 -1,-1 -1,-1 -3,-1 -1,0 -2,0 -2,1 -1,0 -2,0 -3,1 0,1 0,1 -1,2 0,1 0,1 0,2 0,1 0,2 0,3 1,1 1,1 2,2 1,0 2,1 3,1 0,0 1,1 2,1 1,0 2,1 3,1 1,0 2,1 2,1 1,1 2,2 2,3 1,1 1,2 1,3 0,1 0,2 -1,4 0,1 -1,2 -2,3 -1,1 -2,1 -3,2 -1,0 -2,0 -4,0 -2,0 -3,0 -5,-1 -1,0 -3,-1 -4,-3l1 -1c0,0 0,0 1,0 0,0 0,0 0,0 0,0 1,1 1,1 0,0 0,0 1,1 0,0 1,0 1,1 1,0 1,0 2,0 1,0 1,1 2,1 1,0 3,-1 3,-1 1,0 2,-1 3,-2 0,0 1,-1 1,-2 1,-1 1,-2 1,-3 0,-1 0,-2 -1,-3 0,0 -1,-1 -2,-1 0,-1 -1,-1 -2,-2 -1,0 -2,0 -3,-1 -1,0 -2,0 -2,-1 -1,0 -2,0 -3,-1 -1,-1 -1,-1 -2,-2 0,-1 0,-2 0,-4 0,-1 0,-2 0,-3 1,-1 1,-2 2,-2 1,-1 2,-2 3,-2 1,-1 2,-1 3,-1 2,0 3,1 5,1 1,1 2,1 3,2l-1 1z"/>
   <polygon id="2" class="fil3" points="1331,1743 1329,1743 1329,1712 1331,1712 "/>
   <path id="3" class="fil3" d="M1365 1738c0,0 0,0 0,0l1 1c0,1 -1,1 -2,2 -1,0 -1,1 -2,1 -1,1 -2,1 -3,1 -1,0 -2,0 -3,0 -3,0 -4,0 -6,-1 -2,0 -3,-2 -5,-3 -1,-1 -2,-3 -3,-5 0,-2 -1,-4 -1,-7 0,-2 1,-4 1,-6 1,-2 2,-4 4,-5 1,-2 2,-3 4,-4 2,0 4,-1 6,-1 1,0 2,0 3,1 1,0 2,0 3,0 0,1 1,1 2,1 1,1 1,1 2,2l-1 1c0,0 0,0 0,0 0,0 -1,0 -1,0 0,0 0,0 -1,0 0,-1 0,-1 -1,-1 0,0 -1,-1 -1,-1 -1,0 -1,0 -2,-1 -1,0 -2,0 -3,0 -2,0 -3,1 -5,1 -1,1 -3,2 -4,3 -1,1 -2,3 -2,4 -1,2 -1,4 -1,6 0,3 0,5 1,6 0,2 1,4 2,5 1,1 2,2 4,3 1,0 3,0 5,0 1,0 2,0 3,0 0,0 1,0 2,0 1,-1 1,-1 2,-2 0,0 1,0 2,-1 0,0 0,0 0,0 0,0 0,0 0,0z"/>
   <path id="path42" class="fil13" d="M1203 1686l-2 40 -3 38 -1 0 -31 -13 0 0c0,0 0,0 -1,0l0 0 -32 1 -31 1 -32 1c-11,0 -21,0 -32,1l0 0c11,0 21,0 32,0l0 0 32 1 32 0 31 1 31 13c0,0 1,0 1,0l0 0 0 0 4 -1c2,0 3,-1 3,-2l0 0 0 0 3 -41 3 -36 1 0 17 39 0 0c0,1 1,1 2,2l0 0 6 1 0 0 0 0c2,1 4,0 4,-2l0 0 6 -21 1 0c4,18 8,35 13,53l0 0 0 0c0,0 0,0 0,0l0 0 3 5 0 0 0 0c0,1 2,1 3,0l0 0 20 -15c11,1 22,2 33,3l0 0 17 2 16 1 -16 -3 -17 -2c-11,-1 -22,-3 -33,-4l0 0c-1,0 -1,0 -1,0l0 0 0 0 -20 13 -1 -2c-4,-18 -8,-36 -12,-54l0 0c0,-1 -1,-2 -2,-2l0 0 0 0 -6 -2c-2,0 -3,1 -4,3l0 0 0 0 -5 20 -2 0 -17 -40c0,-1 -1,-2 -2,-2l0 0 -7 -1 0 0 0 0c0,0 0,0 0,0l0 0c-2,0 -4,2 -4,4m0 0l0 0 0 0z"/>
   <polygon id="text46" class="fil3" points="1044,1784 1044,1785 1040,1785 1040,1798 1039,1798 1039,1785 1035,1785 1035,1784 "/>
   <path id="1" class="fil3" d="M1076 1792l0 6 -1 0 0 -14 4 0c1,0 2,1 3,1 1,1 1,2 1,3 0,0 0,1 0,1 -1,1 -1,1 -1,1 0,1 -1,1 -1,1 -1,0 -1,1 -2,1 0,0 1,0 1,0l4 6 -1 0c0,0 0,0 0,0 0,0 0,0 0,-1l-4 -5c0,0 0,0 -1,0 0,0 0,0 0,0l-2 0zm0 -1l2 0c1,0 1,0 2,0 0,0 1,-1 1,-1 0,0 1,0 1,-1 0,0 0,-1 0,-1 0,-1 0,-2 -1,-2 0,-1 -1,-1 -2,-1l-3 0 0 6z"/>
   <path id="2" class="fil3" d="M1257 1793c0,1 0,2 0,2 0,1 0,1 -1,2 0,0 -1,0 -1,1 0,0 -1,0 -2,0 0,0 0,0 0,0 -1,0 -1,0 -1,0 0,0 0,-1 0,-1 0,0 0,0 0,0 0,0 0,0 0,0 0,0 0,0 0,0 0,0 0,0 0,0 0,0 0,0 1,0 0,0 0,0 0,0 0,0 0,0 0,0 1,0 1,0 2,0 0,0 0,-1 0,-1 1,0 1,-1 1,-1 0,0 0,-1 0,-2l0 -9 1 0 0 9z"/>
   <path id="3" class="fil3" d="M1276 1791c0,1 -1,2 -1,3 0,1 -1,1 -1,2 -1,1 -1,1 -2,1 -1,1 -2,1 -2,1 -1,0 -2,0 -3,-1 -1,0 -1,0 -2,-1 0,-1 -1,-1 -1,-2 0,-1 0,-2 0,-3 0,-1 0,-2 0,-3 0,-1 1,-1 1,-2 1,0 1,-1 2,-1 1,-1 2,-1 3,-1 0,0 1,0 2,1 1,0 1,1 2,1 0,1 1,1 1,2 0,1 1,2 1,3zm-1 0c0,-1 -1,-2 -1,-2 0,-1 0,-2 -1,-2 0,-1 -1,-1 -1,-1 -1,-1 -2,-1 -2,-1 -1,0 -2,0 -3,1 0,0 -1,0 -1,1 -1,0 -1,1 -1,2 0,0 -1,1 -1,2 0,1 1,2 1,3 0,0 0,1 1,1 0,1 1,1 1,2 1,0 2,0 3,0 0,0 1,0 2,0 0,-1 1,-1 1,-2 1,0 1,-1 1,-1 0,-1 1,-2 1,-3z"/>
   <path id="4" class="fil3" d="M1286 1797c1,0 1,0 2,0 0,0 1,-1 1,-1 0,-1 0,-1 1,-2 0,0 0,-1 0,-1l0 -9 1 0 0 9c0,0 0,1 -1,2 0,0 0,1 -1,1 0,1 0,1 -1,2 -1,0 -1,0 -2,0 -1,0 -1,0 -2,0 -1,-1 -1,-1 -2,-2 0,0 0,-1 0,-1 -1,-1 -1,-2 -1,-2l0 -9 1 0 0 9c0,0 0,1 0,1 1,1 1,1 1,2 0,0 1,1 1,1 1,0 1,0 2,0z"/>
   <path id="5" class="fil3" d="M1299 1792l0 6 -1 0 0 -13 4 0c1,0 2,0 3,1 1,0 1,1 1,2 0,1 0,1 0,2 -1,0 -1,0 -1,1 0,0 -1,0 -1,1 -1,0 -1,0 -2,0 0,0 1,0 1,0l4 6 -1 0c0,0 0,0 0,0 0,0 0,0 0,0l-4 -6c0,0 0,0 -1,0 0,0 0,0 0,0l-2 0zm0 -1l2 0c1,0 2,0 2,0 0,0 1,0 1,0 0,-1 1,-1 1,-1 0,-1 0,-1 0,-2 0,-1 0,-1 -1,-2 0,0 -1,0 -2,0l-3 0 0 5z"/>
   <path id="6" class="fil3" d="M1314 1785c0,0 0,0 0,0 0,0 0,0 0,0l8 12c0,-1 0,-1 0,-1l0 -11 1 0 0 13 0 0c0,0 -1,0 -1,0l-8 -12c0,1 0,1 0,1l0 11 -1 0 0 -13 1 0z"/>
   <polygon id="7" class="fil3" points="1341,1784 1341,1785 1334,1785 1334,1791 1340,1791 1340,1791 1334,1791 1334,1797 1341,1797 1341,1798 1333,1798 1333,1784 "/>
   <path id="8" class="fil3" d="M1357 1792l0 6 0 0 0 -6 -5 -8 1 0c0,0 0,0 0,0 0,0 0,0 0,0l4 7c0,0 0,0 0,0 0,0 0,0 0,0 0,0 0,0 0,0 0,0 0,0 0,0l4 -7c0,0 0,0 0,0 0,0 0,0 0,0l1 0 -5 8z"/>
   <path id="9" class="fil3" d="M1059 1797c0,0 1,0 1,0 1,0 1,-1 1,-1 1,-1 1,-1 1,-2 0,0 1,-1 1,-1l0 -9 0 0 0 9c0,0 0,1 0,2 0,0 0,1 -1,1 0,1 -1,1 -1,2 -1,0 -2,0 -2,0 -1,0 -2,0 -2,0 -1,-1 -1,-1 -2,-2 0,0 -1,-1 -1,-1 0,-1 0,-2 0,-2l0 -9 1 0 0 9c0,0 0,1 0,1 0,1 0,1 1,2 0,0 1,1 1,1 1,0 1,0 2,0z"/>
   <path id="10" class="fil3" d="M1093 1784c0,0 0,0 0,0 0,0 0,1 0,1l8 11c0,0 0,0 0,0l0 -12 1 0 0 14 0 0c-1,0 -1,0 -1,0l-8 -12c0,0 0,0 0,1l0 11 -1 0 0 -14 1 0z"/>
   <path id="11" class="fil3" d="M1130 1797c0,0 1,0 1,0 1,0 1,-1 1,-1 1,-1 1,-1 1,-2 0,0 0,-1 0,-1l0 -9 1 0 0 9c0,0 0,1 0,2 0,0 -1,1 -1,1 0,1 -1,1 -1,2 -1,0 -2,0 -2,0 -1,0 -2,0 -2,0 -1,-1 -2,-1 -2,-2 0,0 -1,-1 -1,-1 0,-1 0,-2 0,-2l0 -9 1 0 0 9c0,0 0,1 0,1 0,1 0,1 1,2 0,0 0,1 1,1 0,0 1,0 2,0z"/>
   <path id="12" class="fil3" d="M1145 1792l0 6 -1 0 0 -14 3 0c2,0 3,1 4,1 1,1 1,2 1,3 0,1 0,2 0,2 -1,0 -1,1 -1,1 -1,1 -1,1 -2,1 0,0 -1,0 -2,0l-2 0zm0 0l2 0c1,0 2,0 2,-1 0,0 1,0 1,0 0,-1 1,-1 1,-1 0,-1 0,-1 0,-2 0,-1 0,-1 -1,-2 0,-1 -1,-1 -3,-1l-2 0 0 7z"/>
   <path id="13" class="fil3" d="M1173 1792l0 6 -1 0 0 -6 -4 -8 0 0c0,0 0,0 1,0 0,0 0,0 0,0l3 7c0,0 0,0 0,0 1,0 1,0 1,0 0,0 0,0 0,0 0,0 0,0 0,0l4 -7c0,0 0,0 0,0 0,0 0,0 0,0l1 0 -5 8z"/>
   <path id="14" class="fil3" d="M1194 1791c0,1 0,2 -1,3 0,1 0,2 -1,2 0,1 -1,1 -2,2 0,0 -1,0 -2,0 -1,0 -2,0 -3,0 0,-1 -1,-1 -1,-2 -1,0 -1,-1 -2,-2 0,-1 0,-2 0,-3 0,-1 0,-2 0,-3 1,0 1,-1 2,-2 0,0 1,-1 1,-1 1,0 2,-1 3,-1 1,0 2,1 2,1 1,0 2,1 2,1 1,1 1,2 1,2 1,1 1,2 1,3zm-1 0c0,-1 0,-1 0,-2 -1,-1 -1,-2 -1,-2 -1,-1 -1,-1 -2,-1 -1,-1 -1,-1 -2,-1 -1,0 -2,0 -2,1 -1,0 -1,0 -2,1 0,0 -1,1 -1,2 0,1 0,1 0,2 0,1 0,2 0,3 0,1 1,1 1,2 1,0 1,1 2,1 0,0 1,0 2,0 1,0 1,0 2,0 1,0 1,-1 2,-1 0,-1 0,-1 1,-2 0,-1 0,-2 0,-3z"/>
   <path id="15" class="fil3" d="M1207 1797c0,0 1,0 1,0 1,0 1,-1 2,-1 0,-1 0,-1 0,-2 1,0 1,-1 1,-1l0 -9 1 0 0 9c0,0 0,1 -1,2 0,0 0,1 -1,1 0,1 -1,1 -1,2 -1,0 -1,0 -2,0 -1,0 -2,0 -2,0 -1,-1 -1,-1 -2,-2 0,0 0,-1 -1,-1 0,-1 0,-2 0,-2l0 -9 1 0 0 9c0,0 0,1 0,1 0,1 1,1 1,2 0,0 1,1 1,1 1,0 1,0 2,0z"/>
   <path id="16" class="fil3" d="M1221 1792l0 6 -1 0 0 -14 3 0c2,0 3,1 3,1 1,1 1,2 1,3 0,0 0,1 0,1 0,1 0,1 0,1 -1,1 -1,1 -2,1 0,0 -1,1 -1,1 0,0 0,0 0,0l5 6 -1 0c0,0 0,0 0,0 0,0 -1,0 -1,-1l-4 -5c0,0 0,0 0,0 0,0 0,0 -1,0l-1 0zm0 -1l2 0c1,0 1,0 2,0 0,0 0,-1 1,-1 0,0 0,0 0,-1 1,0 1,-1 1,-1 0,-1 -1,-2 -1,-2 -1,-1 -2,-1 -3,-1l-2 0 0 6z"/>
  </g>
  <g>
   <path class="fil4" d="M1611 1251l-131 -35 -23 91 128 32 42 -32 -16 -56zm-11 56c0,0 0,0 0,0 -5,0 -9,-4 -9,-9 0,-6 4,-10 9,-10 5,0 10,4 10,10 0,0 0,0 0,0 0,5 -4,9 -10,9l0 0z"/>
   <path class="fil14" d="M1733 1372c-36,0 -58,-20 -77,-39 -15,-14 -30,-28 -50,-30 -2,-1 -3,-2 -3,-3 0,0 0,0 0,-1 0,-1 2,-2 3,-2 0,0 0,0 0,0 23,3 38,17 54,32 19,19 40,39 75,38 53,-1 84,-75 84,-75 1,-1 2,-2 3,-2 0,0 1,0 1,0 1,1 2,2 2,3 0,0 0,0 -1,1 -1,3 -32,77 -88,78l-3 0z"/>
   <path class="fil15" d="M1508 1285l7 -37 16 3c4,1 7,2 8,3 2,1 3,2 4,4 1,2 1,4 1,6 -1,3 -2,5 -4,7 -2,1 -5,2 -8,2 1,1 2,2 3,4 1,1 2,3 3,6l4 8 -9 -1 -4 -9c-2,-3 -3,-6 -3,-6 -1,-1 -2,-2 -2,-2 -1,-1 -2,-1 -4,-2l-1 0 -3 16 -8 -2zm12 -20l5 1c4,1 6,1 7,1 1,0 2,0 2,-1 1,-1 1,-2 2,-3 0,-1 0,-2 -1,-3 0,-1 -1,-2 -2,-2 -1,0 -3,-1 -6,-1l-6 -1 -1 9z"/>
   <path id="1" class="fil15" d="M1550 1265l7 1 -1 4c1,-1 3,-2 4,-2 2,-1 4,-1 6,-1 3,1 5,2 7,5 2,3 2,7 1,11 -1,5 -2,8 -5,10 -3,2 -5,3 -9,2 -1,0 -2,0 -3,-1 -2,-1 -3,-2 -4,-4l-2 14 -7 -2 6 -37zm5 14c0,3 0,6 1,7 1,2 2,3 4,3 1,1 3,0 4,-1 2,-1 2,-3 3,-6 1,-3 0,-5 -1,-7 0,-1 -2,-2 -3,-2 -2,-1 -4,0 -5,1 -1,1 -2,3 -3,5z"/>
  </g>
  <g>
   <rect class="fil2" x="1822" y="1139" width="44.0002" height="508"/>
   <path class="fil4" d="M1907 1443c8,13 12,27 12,43 0,23 -8,43 -22,58 31,21 51,56 51,96 0,64 -52,116 -116,116 -64,0 -115,-52 -115,-116 0,-42 22,-78 55,-99 -13,-14 -21,-34 -21,-55 0,-34 21,-63 50,-76 0,2 0,4 0,6 0,30 25,54 57,54 21,0 40,-11 49,-27z"/>
   <polygon class="fil4" points="1841,1065 1883,1065 1883,1189 1805,1189 1805,1121 "/>
   <circle class="fil6" cx="1835" cy="1164" r="6"/>
   <circle class="fil6" cx="1835" cy="1143" r="6"/>
   <circle class="fil6" cx="1835" cy="1122" r="6"/>
   <circle class="fil6" cx="1854" cy="1164" r="6"/>
   <circle class="fil6" cx="1854" cy="1143" r="6"/>
   <circle class="fil6" cx="1854" cy="1122" r="6"/>
   <path class="fil6" d="M1880 1496c7,8 12,19 12,31 0,13 -5,24 -12,32 14,14 23,35 23,59 0,25 -10,48 -25,61 -4,-23 -30,-41 -62,-41 -11,0 -21,2 -30,6 -2,-8 -4,-17 -4,-26 0,-25 10,-47 26,-60 -7,-9 -11,-19 -11,-31 0,-16 8,-30 20,-39 9,10 22,16 36,16 10,0 19,-3 27,-8z"/>
   <rect class="fil2" x="1819" y="1535" width="52.431" height="5.25912" rx="5" ry="3"/>
   <rect class="fil2" x="1819" y="1571" width="52.431" height="5.25912" rx="5" ry="3"/>
   <rect class="fil2" transform="matrix(1.31417 0.283452 -0.158408 0.734427 1820.21 1602.66)" width="38.9999" height="6.99987" rx="3" ry="3"/>
   <rect class="fil2" x="1816" y="1643" width="55.0001" height="11.4999"/>
   <g>
    <g id="_56885896">
     <path class="fil0" d="M1836 1165c0,0 0,482 0,482 0,1 0,1 -1,1 -1,0 -1,0 -1,-1 0,0 0,-482 0,-482 0,0 0,-1 1,-1 1,0 1,1 1,1z"/>
    </g>
    <line class="fil9" x1="1835" y1="1165" x2="1835" y2= "1647" />
    <g id="_56896720">
     <path class="fil0" d="M1840 1144c0,0 0,503 0,503 0,1 -1,1 -1,1 -1,0 -1,0 -1,-1 0,0 0,-503 0,-503 0,-1 0,-1 1,-1 0,0 1,0 1,1z"/>
    </g>
    <line class="fil9" x1="1839" y1="1144" x2="1839" y2= "1647" />
    <g id="_56908504">
     <path class="fil0" d="M1844 1123c0,0 0,524 0,524 0,1 -1,1 -1,1 -1,0 -1,0 -1,-1 0,0 0,-524 0,-524 0,-1 0,-1 1,-1 0,0 1,0 1,1z"/>
    </g>
    <line class="fil9" x1="1843" y1="1123" x2="1843" y2= "1647" />
    <g id="_56878696">
     <path class="fil0" d="M1854 1165c0,0 0,482 0,482 0,1 0,1 1,1 0,0 1,0 1,-1 0,0 0,-482 0,-482 0,0 -1,-1 -1,-1 -1,0 -1,1 -1,1z"/>
    </g>
    <line class="fil9" x1="1855" y1="1165" x2="1855" y2= "1647" />
    <g id="_56881528">
     <path class="fil0" d="M1850 1144c0,0 0,503 0,503 0,1 0,1 1,1 1,0 1,0 1,-1 0,0 0,-503 0,-503 0,-1 0,-1 -1,-1 -1,0 -1,0 -1,1z"/>
    </g>
    <line class="fil9" x1="1851" y1="1144" x2="1851" y2= "1647" />
    <g id="_56885032">
     <path class="fil0" d="M1846 1123c0,0 0,524 0,524 0,1 0,1 1,1 1,0 1,0 1,-1 0,0 0,-524 0,-524 0,-1 0,-1 -1,-1 -1,0 -1,0 -1,1z"/>
    </g>
    <line class="fil9" x1="1847" y1="1123" x2="1847" y2= "1647" />
   </g>
   <rect class="fil6" x="1822" y="1235" width="44.0002" height="2.50016"/>
   <rect class="fil6" x="1822" y="1297" width="44.0002" height="2.50016"/>
   <rect class="fil6" x="1822" y="1356" width="44.0002" height="2.50016"/>
   <rect class="fil6" x="1822" y="1413" width="44.0002" height="2.50016"/>
   <circle class="fil2" cx="1886" cy="1592" r="7"/>
   <circle class="fil2" cx="1890" cy="1612" r="7"/>
   <circle class="fil2" cx="1888" cy="1633" r="7"/>
  </g>
 </g>
</svg>
