<?xml version="1.0" encoding="UTF-8"?>
<!DOCTYPE svg PUBLIC "-//W3C//DTD SVG 1.1//EN" "http://www.w3.org/Graphics/SVG/1.1/DTD/svg11.dtd">
<!-- Creator: CorelDRAW X7 -->
<svg xmlns="http://www.w3.org/2000/svg" xml:space="preserve" width="2560px" height="1000px" version="1.1" style="shape-rendering:geometricPrecision; text-rendering:geometricPrecision; image-rendering:optimizeQuality; fill-rule:evenodd; clip-rule:evenodd"
viewBox="0 0 2560 1000"
 xmlns:xlink="http://www.w3.org/1999/xlink"
 xmlns:dc="http://purl.org/dc/elements/1.1/"
 xmlns:cc="http://creativecommons.org/ns#"
 xmlns:rdf="http://www.w3.org/1999/02/22-rdf-syntax-ns#"
 xmlns:svg="http://www.w3.org/2000/svg">
 <defs>
  <style type="text/css">
   <![CDATA[
    .fil1 {fill:black}
    .fil0 {fill:#2F3232;fill-rule:nonzero}
    .fil3 {fill:#A7A5A6;fill-rule:nonzero}
    .fil2 {fill:url(#id0)}
   ]]>
  </style>
  <linearGradient id="id0" gradientUnits="userSpaceOnUse" x1="1347.02" y1="644.322" x2="1347.02" y2="-125.633">
   <stop offset="0" style="stop-opacity:1; stop-color:#F68712"/>
   <stop offset="0.478431" style="stop-opacity:1; stop-color:#ED127B"/>
   <stop offset="1" style="stop-opacity:1; stop-color:#ED127B"/>
  </linearGradient>
 </defs>
 <g id="Layer_x0020_1">
  <metadata id="CorelCorpID_0Corel-Layer"/>
  <g id="_273814600">
   <path id="text14" class="fil0" d="M339 290c-1,2 -3,4 -4,5 -2,1 -3,1 -6,1 -2,0 -4,-1 -6,-2 -3,-2 -6,-3 -10,-5 -3,-2 -7,-4 -12,-5 -5,-1 -10,-2 -16,-2 -6,0 -11,0 -16,2 -4,1 -7,3 -10,5 -3,2 -5,5 -7,8 -1,3 -2,7 -2,11 0,4 1,8 4,12 3,3 7,6 12,8 5,2 10,4 17,6 6,2 12,4 18,6 7,2 13,4 19,7 7,2 12,6 17,10 5,4 9,9 12,15 3,6 4,13 4,22 0,9 -2,18 -5,26 -4,8 -9,15 -15,21 -7,6 -15,10 -25,14 -9,3 -20,5 -33,5 -7,0 -14,-1 -21,-2 -7,-1 -13,-3 -19,-5 -7,-3 -13,-5 -18,-9 -6,-3 -11,-7 -15,-11l12 -18c1,-1 3,-3 4,-3 2,-1 4,-2 5,-2 3,0 6,1 9,3 3,2 6,4 10,7 4,2 9,4 15,6 5,2 12,3 20,3 11,0 21,-3 27,-8 7,-5 10,-12 10,-22 0,-5 -2,-10 -4,-13 -3,-4 -7,-6 -12,-9 -5,-2 -11,-4 -17,-6 -6,-1 -12,-3 -19,-5 -6,-2 -12,-4 -18,-7 -7,-2 -12,-6 -17,-10 -5,-4 -9,-10 -12,-16 -3,-6 -4,-14 -4,-24 0,-7 2,-14 5,-21 3,-7 8,-14 14,-19 6,-6 14,-10 23,-13 9,-4 19,-5 31,-5 13,0 25,2 37,5 11,4 20,9 28,16l-10 18z"/>
   <polygon id="1" class="fil0" points="515,253 515,284 447,284 447,458 406,458 406,284 338,284 338,253 "/>
   <path id="2" class="fil0" d="M568 378l0 80 -41 0 0 -205 68 0c15,0 28,1 39,4 11,3 20,7 27,12 7,5 12,11 15,19 4,7 5,15 5,24 0,7 -1,13 -3,19 -2,6 -6,12 -10,17 -4,5 -9,9 -15,13 -6,4 -13,7 -21,9 5,3 10,7 13,12l56 76 -37 0c-4,0 -7,-1 -9,-2 -3,-2 -5,-4 -7,-6l-47 -66c-1,-2 -3,-4 -5,-5 -3,-1 -6,-1 -10,-1l-18 0zm0 -28l26 0c8,0 15,-1 21,-3 6,-1 11,-4 14,-7 4,-3 7,-7 9,-11 2,-5 2,-9 2,-15 0,-10 -3,-18 -11,-24 -7,-5 -19,-8 -34,-8l-27 0 0 68z"/>
   <polygon id="3" class="fil0" points="838,253 838,283 739,283 739,340 817,340 817,369 739,369 739,427 838,427 838,458 697,458 697,253 "/>
   <polygon id="4" class="fil0" points="996,253 996,283 897,283 897,340 975,340 975,369 897,369 897,427 996,427 996,458 855,458 855,253 "/>
   <polygon id="5" class="fil0" points="1162,253 1162,284 1095,284 1095,458 1053,458 1053,284 986,284 986,253 "/>
   <g>
    <path id="6" class="fil1" d="M339 290c0,0 0,1 0,1 -1,0 -1,0 -1,0 0,0 0,0 1,0 0,0 0,0 0,0l0 -1 10 -18c0,0 -1,0 -1,0l0 0 0 -1 0 0 -1 0 0 0 0 0 0 0 0 -1 0 0 -1 0 0 0 0 0 0 0 -1 -1 0 0 0 0 0 0 0 0 -1 0 0 0 0 -1 0 0 0 0 -1 0 0 0 0 0 0 0 0 -1 -1 0 0 0 0 0 0 0 0 0 -1 0 0 -1 0 0 0 0 0 0 -1 0 0 0 0 0 0 0 0 -1 -1 0 0 0 0 0 0 0 0 0c-1,0 -1,-1 -1,-1l0 0c-1,0 -1,0 -1,0l0 0 0 -1 -1 0 0 0 0 0 0 0 0 0 -1 0 0 0 0 0 0 0 0 -1 -1 0 0 0 0 0 0 0 -1 0c0,0 0,0 0,-1l0 0c-1,0 -1,0 -1,0l0 0 -1 0 0 0 0 0 0 -1 -1 0 0 0 0 0 0 0 -1 0 0 0 0 0 0 0 -1 -1 0 0 0 0 0 0 -1 0 0 0 0 0 0 0 -1 0 0 -1 0 0 0 0 -1 0 0 0 0 0 0 0 0 0 -1 0 0 0 0 0 -1 -1 0 0 0 0 0 0 -1 0 0 0 0 0 0 0 -1 0 0 0 0 -1 0 0 0 0 -1 0 0 0 0 0 0 0 -1 0 0 0 0 0 0 0 -1 0 0 0 0 -1c1,1 2,1 3,1 5,2 10,5 15,7 5,3 9,6 13,9l0 0 0 0 -10 18zm-1 2c0,0 -1,1 -1,1 0,0 -1,1 -1,1 0,0 0,0 0,0 0,0 0,0 0,0 1,-1 1,-1 2,-2zm-3 2c0,0 0,1 0,1 0,0 0,0 -1,0 1,0 1,0 1,0l0 0 0 0 0 0c0,0 0,-1 0,-1l0 0 0 0zm-1 1c0,0 -1,1 -2,1 0,0 0,0 0,0 1,0 2,-1 2,-1zm-2 1c0,0 0,0 -1,0 1,0 1,0 1,0zm-1 0c0,0 0,0 0,0 0,0 0,0 0,0zm0 0c-1,0 -1,0 -2,0 0,0 0,0 0,0 0,0 -1,0 -1,0 0,0 1,0 1,0 0,0 0,0 0,0l0 0 0 0 0 0 0 0c1,0 1,0 2,0zm-4 0c0,0 0,0 0,0 -1,-1 -1,-1 -1,-1l0 0 -1 0c0,0 0,0 0,0 0,0 -1,0 -1,-1 1,1 1,1 2,1 0,0 1,1 1,1 0,0 0,0 0,0zm-4 -2c0,0 0,0 0,0 -1,-1 -2,-1 -3,-2 -2,0 -3,-1 -4,-2 0,0 -1,0 -1,0 0,0 1,0 1,0 1,1 2,1 2,1 1,1 1,1 2,1 1,1 2,1 3,2 0,0 0,0 0,0zm-9 -5l-1 0c-1,-1 -3,-2 -5,-3 -2,-1 -5,-1 -7,-2l0 0 0 0c2,1 4,1 6,2l0 0 0 0 0 0c2,1 5,2 6,3l1 0zm-13 -5c-1,0 -2,-1 -3,-1 1,0 1,0 1,0l1 1c0,0 0,0 1,0m-4 -1c-1,0 -1,0 -1,0 0,0 0,0 1,0zm-3 -1c0,0 0,0 -1,0 -2,0 -4,0 -6,0 1,0 2,0 2,0 1,0 1,0 1,0 1,0 1,0 1,0 1,0 1,0 1,0l0 0 1 0c0,0 1,0 1,0zm-7 0c-1,0 -2,0 -2,0 0,0 0,0 0,0 1,0 1,0 2,0zm-2 0l0 0 -1 0 1 0 0 0zm-1 0c-1,0 -2,0 -3,0 1,0 2,0 3,0zm-3 0c0,0 -1,0 -1,0 0,0 1,0 1,0zm-1 0c0,0 -1,0 -1,0 0,0 1,0 1,0zm-2 0c0,0 0,0 -1,0 1,0 1,0 1,0zm-1 0c0,0 0,0 0,0 0,0 0,0 0,0zm-4 1c0,0 -1,0 -1,0 0,0 -1,0 -1,0 0,0 1,0 1,0 0,0 1,0 1,0zm-2 0c0,0 -1,1 -2,1 0,0 0,0 -1,0 1,0 1,0 1,0 1,0 2,-1 2,-1zm-3 1c-1,1 -3,1 -4,2 -1,0 -1,0 -1,0 1,0 2,-1 2,-1l0 0c1,0 1,0 1,0l0 0 0 0 0 0c0,0 0,0 1,0l0 0c0,-1 1,-1 1,-1zm-5 2c0,0 0,1 -1,1 1,0 1,-1 1,-1zm-1 1c-1,0 -2,1 -3,2 -1,0 -1,1 -2,1 -2,2 -3,4 -5,6 1,-1 2,-2 3,-3 1,-1 1,-2 2,-3 1,0 1,-1 2,-1 1,-1 2,-2 3,-2zm-10 10l0 0c0,1 -1,3 -1,4 0,-1 0,-3 1,-4l0 0 0 0zm-2 5l0 0c0,0 0,0 0,1 0,-1 0,-1 0,-1zm0 1c0,1 0,3 0,5 0,-1 0,-2 0,-3l0 0 0 0 0 0 0 0 0 0c0,-1 0,-2 0,-2zm0 5l0 0c0,0 0,0 0,0 0,0 0,0 0,0l0 0zm0 0c0,1 0,1 0,1 0,0 0,0 0,-1zm0 1c0,0 0,0 0,0 0,0 0,0 0,0zm0 0c0,1 0,1 0,1 0,0 0,0 0,-1zm0 1c0,1 0,2 1,3 0,0 0,0 0,0l0 0 0 0 0 0c-1,0 -1,-1 -1,-1l0 0c0,0 0,-1 0,-2zm1 4c0,0 0,0 0,0 0,0 0,0 0,0zm0 1c0,0 0,0 1,1 -1,-1 -1,-1 -1,-1zm1 1c0,1 1,2 2,4 2,1 3,3 5,4 2,1 3,2 4,2 0,1 1,1 1,1 0,0 0,0 1,0 0,0 0,1 1,1 0,0 1,0 2,1l0 0 0 0 1 0 0 0c0,0 1,0 1,1 1,0 1,0 1,0 0,0 0,0 -1,0 -1,-1 -3,-2 -4,-2 -1,0 -1,-1 -1,-1 -1,0 -1,0 -1,0 0,0 -1,0 -1,-1 -3,-2 -6,-4 -9,-6 -1,-1 -1,-2 -2,-4l0 0c0,0 0,0 0,0l0 0 0 0zm21 15l1 0c1,0 2,1 3,1l0 0 -1 0c-1,0 -2,-1 -3,-1zm4 1c1,1 2,1 3,1 -1,0 -1,0 -2,0 0,-1 -1,-1 -1,-1zm4 1c0,1 1,1 2,1 1,0 3,1 5,2 1,0 2,0 3,0 -1,0 -2,0 -3,0l-1 -1c-1,0 -1,0 -2,0l0 0c-1,-1 -2,-1 -2,-1 -1,0 -2,0 -2,-1zm10 4l1 0 0 0 -1 0zm1 0c3,1 6,2 9,3 4,1 7,2 10,3 2,1 4,2 6,2 1,1 2,1 3,2 1,0 1,0 2,0 2,1 5,3 7,4 3,2 5,4 8,6 2,2 5,4 6,7 2,2 4,5 6,8 0,1 1,2 1,3 0,0 0,1 0,1l0 0 0 0 0 0c0,0 0,1 1,1 0,1 1,3 1,5 0,0 0,0 0,1 0,0 0,0 0,0 0,1 0,1 0,1 0,1 1,2 1,2 0,2 0,3 0,4 0,0 0,0 0,1l0 0c0,0 0,1 0,1l0 0 0 1 0 0 0 0 0 0 0 0 0 0 0 1 0 0 0 0 0 0 0 0 0 1 0 0 0 0 0 1 0 0c0,0 0,0 0,1 0,-1 0,-2 0,-3 0,-2 0,-3 0,-4 0,0 0,-1 0,-1l0 0c0,0 0,-1 0,-1l0 0 0 -1 0 0c0,0 0,0 0,0l0 0 0 -1c0,0 -1,-1 -1,-2 0,0 0,0 0,-1 0,0 0,0 0,0 0,-1 0,-1 0,-1l0 0 0 -1 0 0 0 0 0 0c0,0 0,-1 -1,-1l0 0 0 0 0 0 0 -1 0 0c0,0 0,0 0,-1l0 0 0 0 0 0 0 0 0 -1 0 0 0 0 0 0 0 0 0 0c-1,-1 -1,-1 -1,-2l0 0 0 0 0 0 0 0 0 -1 0 0 0 0 0 0 -1 0 0 0c0,0 0,-1 0,-1l0 0c0,0 0,0 0,0l0 0 0 -1 0 0 0 0 0 0 0 0c-1,0 -1,-1 -1,-1l0 0 0 0 0 0c0,0 0,-1 0,-1l0 0c0,0 0,0 -1,0l0 0c0,-1 0,-1 0,-1l0 0c-1,-2 -2,-3 -3,-4l0 0c-2,-3 -4,-6 -7,-8 -1,0 -1,-1 -2,-1l0 0c0,-1 0,-1 -1,-1 0,0 0,0 0,-1 -4,-2 -8,-5 -12,-7 -1,0 -1,0 -2,0 -1,-1 -2,-1 -3,-2 0,0 0,0 -1,0l0 0 -1 0c0,0 0,-1 0,-1l-1 0 0 0c-1,0 -1,0 -2,-1l0 0 0 0c-1,0 -1,0 -1,0l0 0 -1 0c-1,-1 -1,-1 -2,-1l0 0c0,0 -1,0 -1,0l0 -1 -1 0 0 0 0 0 -1 0c0,0 0,0 -1,0l0 -1 0 0c0,0 -1,0 -1,0 -1,0 -1,0 -2,0 -2,-1 -4,-2 -6,-2m58 59c0,1 0,1 0,1l0 1 0 0 0 0 0 0 0 0 0 1 0 0 0 0 0 0 0 0 0 1 0 0 0 0 0 0c0,-1 0,-2 0,-3l0 0 0 0 0 0c0,0 0,-1 0,-1zm0 5c-1,0 -1,1 -1,1 0,0 0,0 0,1l0 0 0 0 0 0 0 0 0 0 0 1c0,0 0,0 0,1l0 0c0,0 0,0 0,0l0 1c0,0 0,0 0,1 -1,3 -2,7 -4,11l0 0 0 0 0 1 0 0 0 0 0 0 0 0 0 0 -1 1 0 0 0 0c0,0 0,0 0,1l0 0 0 0 0 0 0 0 0 1 -1 0 0 0 0 0 0 0 0 0 0 1c0,0 0,0 0,0 0,0 -1,1 -1,1l0 0c0,0 0,0 0,1l0 0c0,0 0,0 -1,0l0 1 0 0 0 0 0 0 0 0c-1,1 -1,2 -1,2 -1,1 -1,2 -2,2l0 0c0,0 0,1 0,1 0,0 -1,0 -1,1l0 0 0 0c-1,1 -1,1 -1,2l-1 0 0 0c0,0 0,0 0,1 0,0 -1,0 -1,0l0 1c0,0 -1,0 -1,1 -1,0 -1,1 -1,1l0 0 -1 0 0 0c0,1 -1,1 -1,2 0,0 -1,0 -1,0l0 0 0 0 0 0c-1,1 -2,2 -3,3l0 0 0 0 0 0 0 0 0 0 -1 0 0 0c0,1 0,1 0,1l0 0c-1,0 -1,0 -1,1l0 0 -1 0 0 0c0,0 0,0 0,0l-1 0 0 1 0 0 0 0 0 0 -1 0 0 0c0,0 0,1 -1,1l0 0c0,0 0,0 -1,0l0 0c0,1 -1,1 -1,1l0 0c0,0 -1,1 -1,1l-1 0c0,0 0,0 -1,1l0 0 0 0 0 0c-1,0 -1,0 -1,0l0 0c-2,1 -3,2 -4,2l0 0 0 0 -1 0 0 0 0 1 0 0 0 0c-1,0 -1,0 -2,0l0 0 0 0 0 0c0,0 -1,1 -1,1l0 0 0 0 -1 0 0 0 0 0 0 0 0 0 0 0 -1 0 0 0 0 0 0 0 0 1c-1,0 -1,0 -1,0 0,0 0,0 1,0 0,-1 1,-1 1,-1 5,-2 10,-4 14,-6 4,-3 7,-5 11,-8 3,-3 6,-6 8,-10 3,-4 5,-7 7,-11 0,-1 0,-1 0,-1l0 0 0 0c0,-1 0,-1 1,-1l0 0 0 0 0 -1 0 0 0 0 0 0 0 0 0 -1 0 0 0 0 0 0 0 0 0 0 1 -1 0 0 0 0 0 0 0 0 0 -1 0 0 0 0 0 0 0 0 0 -1 0 0 0 0 0 0c0,-1 1,-1 1,-1l0 0 0 -1 0 0c0,0 0,0 0,0l0 -1 0 0 0 0 0 0 0 0 0 -1 0 0c0,0 0,-1 0,-1 1,0 1,0 1,0l0 -1c0,-1 0,-3 0,-4 0,0 0,0 0,-1m-47 54c0,0 -1,0 -2,1l0 0 1 -1 0 0 0 0 0 0 0 0c1,0 1,0 1,0zm-2 1c-1,0 -2,0 -3,0l0 0m0 0l-1 1 0 0 0 0 0 0 0 0 -1 0 0 0 0 0 0 0 -1 0 0 0 0 0 0 0 -1 0 0 0 0 0 -1 0 0 0 0 1 0 0 -1 0 0 0 0 0 0 0 -1 0 0 0c0,0 0,0 -1,0l0 0 0 0 -1 0 0 0 0 0 0 0 -1 0c0,0 0,0 -1,0 -2,1 -5,1 -7,1l-1 0 0 0 0 0 0 0 0 0c-2,0 -4,0 -6,0 -1,0 -2,0 -4,0 -1,0 -2,0 -3,0 1,0 2,0 3,0 1,0 3,0 4,0l0 0 0 0 1 0 0 0 0 0 0 0 1 0 0 0 0 0 0 0 1 0 0 0 1 0 0 0 0 0 0 0 1 0 0 0 0 0 0 0 1 0c0,0 0,0 1,0l0 0 0 0 0 0 0 0c1,0 1,0 2,0l0 0 0 0 0 0c1,0 1,0 2,0l0 0 0 0 0 0c1,0 2,-1 2,-1l1 0 0 0 0 0 0 0c1,0 3,0 4,0 2,-1 4,-1 6,-1m-32 2c0,0 -1,0 -2,0 -2,-1 -5,-1 -7,-1 0,0 -1,0 -1,0 -1,0 -1,-1 -2,-1 1,0 1,1 2,1 0,0 1,0 1,0 1,0 3,0 4,0l0 0c0,0 0,0 1,0l0 0 0 0c1,1 2,1 3,1l0 0c0,0 1,0 1,0zm-12 -2l-1 0c-3,0 -6,-1 -10,-2 -3,-1 -6,-2 -9,-3 0,0 0,0 0,0 -1,0 -1,0 -1,-1 -1,0 -1,0 -2,0l0 0 -1 0 0 0 0 -1c0,0 -1,0 -1,0 -2,-1 -3,-2 -5,-2 -3,-2 -5,-3 -8,-5 -3,-1 -6,-3 -8,-5 -3,-2 -5,-4 -7,-6l0 0 0 0 12 -18c1,-1 1,-1 2,-2 1,0 1,-1 2,-1 0,-1 0,-1 1,-1 0,0 0,0 0,0 1,0 1,0 2,0 0,0 0,-1 0,-1 0,0 0,0 0,0 0,0 0,0 0,0 0,0 0,1 0,1 -1,0 -1,0 -2,0 0,0 0,0 0,0 -1,0 -1,0 -1,1l0 0 0 0c0,0 0,0 -1,0l0 0c-1,1 -2,2 -3,3l-12 18c3,3 7,6 11,9l0 0 0 0 0 0c1,1 3,1 4,2 4,3 8,5 13,7 1,0 3,1 5,2 0,0 0,0 0,0 2,1 3,1 5,2l0 0 0 0 1 0 0 0 0 0 0 0c0,0 1,0 1,0l0 0c0,0 1,0 1,1 3,0 6,1 10,2l0 0 0 0c1,0 1,0 1,0l1 0zm-34 -48c1,0 1,0 1,0 0,0 0,0 -1,0zm1 0c0,0 0,0 1,0 0,0 0,0 0,0 0,0 0,0 0,0 -1,0 -1,0 -1,0zm1 0c0,0 0,0 0,0 1,0 1,0 1,0 1,0 1,0 1,0 0,0 0,0 0,0 1,0 1,0 1,1 0,0 0,0 0,0 0,0 0,0 1,0 0,0 0,0 0,0 1,0 1,0 1,0 1,0 1,1 2,1l0 0c0,0 1,1 2,1 3,2 6,4 10,7 3,1 7,3 11,4 -2,0 -3,-1 -4,-1 -2,-1 -5,-2 -7,-3 -2,-2 -4,-3 -5,-4 -2,-1 -4,-2 -5,-3 -1,-1 -3,-1 -4,-2 0,0 -1,0 -1,0 -1,0 -1,0 -1,0 0,0 0,0 0,0 -1,-1 -1,-1 -2,-1 0,0 0,0 0,0 0,0 0,0 -1,0 0,0 0,0 0,0zm30 14c1,1 2,2 4,2 0,0 1,0 1,0 0,0 0,0 0,0 -1,0 -1,0 -1,0 -2,0 -3,-1 -4,-2zm6 3c0,0 1,0 2,0m0 0c0,0 1,0 1,1 0,-1 -1,-1 -1,-1zm1 1c1,0 2,0 2,0 0,0 -1,0 -2,0zm2 0c1,0 1,0 2,0 1,0 2,1 4,1 -1,0 -2,0 -3,-1 0,0 0,0 0,0l0 0c-1,0 -2,0 -3,0zm7 1c1,0 2,0 3,0 -1,0 -2,0 -3,0zm3 0c1,0 1,0 2,0 -1,0 -1,0 -2,0zm2 0l1 0 0 0 0 0 -1 0zm12 -1l0 0c0,0 0,0 0,0zm16 -7l0 0 0 0 0 0 0 0zm5 -4l0 -1 0 1 0 0zm0 -1l0 0 0 0 0 0zm1 -1l0 -1 0 0 0 1zm1 -2l0 0 0 0 0 0 0 0zm1 -1l0 -1 0 0 0 1zm0 -1l0 0 0 0 0 0zm0 -1l0 0 0 0 0 0zm0 0l0 0 0 0 0 0zm1 -2l0 0 0 0 0 0zm0 0l0 0 0 0 0 0zm0 -1l0 0 0 0 0 0zm0 0l0 -1 0 1 0 0zm0 -1l0 0 0 0 0 0zm0 -1l1 -1 -1 1 0 0zm1 -2l0 0 0 0 0 0 0 0zm0 -2l0 -1 0 0 0 1zm0 -2l0 0 0 0 0 0 0 0zm0 -1c0,0 0,-1 0,-1 0,0 0,1 0,1zm0 -1c0,0 0,0 0,-1 0,0 0,0 0,1l0 0c0,0 0,0 0,0zm0 -1c0,0 0,0 0,-1 0,1 0,1 0,1zm0 -1c0,0 0,0 0,0 0,0 0,0 0,0zm0 0c-1,-1 -1,-2 -1,-3 0,1 0,1 0,2 0,0 0,0 1,0l0 1zm-1 -3c0,0 0,0 0,0l0 0c0,0 0,0 0,0 0,0 0,0 0,0zm0 -1c0,0 -1,0 -1,0 0,0 1,0 1,0zm-1 -1c0,0 0,0 0,0 0,0 0,0 0,0zm0 0c0,0 0,0 0,-1 0,1 0,1 0,1zm0 -1c0,0 0,0 -1,0 1,0 1,0 1,0zm-1 0c0,-1 0,-1 0,-1 0,0 0,0 0,1zm0 -1c0,0 0,-1 0,-1 -1,0 -1,-1 -1,-1 0,0 0,0 0,0 -1,-1 -2,-1 -2,-2 0,1 1,1 2,2 0,0 0,0 0,0 0,0 0,1 1,1 0,0 0,1 0,1zm-3 -4c-1,-1 -2,-2 -4,-3 -1,-1 -2,-2 -4,-3 3,2 6,4 8,6zm-9 -6c0,0 0,0 0,0 0,0 0,0 0,0zm-1 0c0,-1 0,-1 0,-1 0,0 -1,0 -1,0 0,0 1,0 1,0 0,0 0,0 0,1zm-2 -1c0,-1 -1,-1 -2,-1 1,0 2,0 2,0l0 1zm-5 -3c0,0 -1,0 -1,0l0 0c0,0 1,0 1,0zm-2 0c0,0 0,0 -1,-1 1,1 1,1 1,1zm-1 -1c0,0 -1,0 -1,0 0,0 1,0 1,0zm-1 0c-1,0 -1,0 -1,0 0,0 0,0 1,0zm-1 0c-1,-1 -1,-1 -2,-1 1,0 1,0 2,1zm-2 -1c-1,0 -2,0 -2,0l-1 -1 0 0c-1,0 -2,0 -3,0 -1,-1 -1,-1 -2,-1 2,0 3,1 5,1l1 1c0,0 1,0 2,0zm-9 -2c-1,-1 -2,-1 -2,-1 -2,0 -4,-1 -6,-1 0,-1 -1,-1 -2,-1 1,0 2,0 2,1 2,0 3,0 5,1l1 0c0,0 1,0 2,1zm-10 -3c-1,0 -2,-1 -3,-1 -2,0 -4,-1 -6,-2 2,1 4,2 6,2 1,0 2,1 3,1zm-9 -3c-1,0 -1,0 -1,0 -2,-1 -3,-1 -4,-2 -2,-1 -5,-2 -7,-3l-1 0 0 0c-3,-1 -5,-2 -8,-4l0 0c-1,-1 -1,-1 -2,-1l0 0c-2,-2 -4,-3 -6,-5l0 0c-1,-1 -1,-1 -2,-2l0 0c0,0 -1,-1 -2,-2 0,0 0,0 0,0l0 0c0,0 -1,-1 -1,-1 0,0 0,0 0,-1l0 0c0,0 -1,0 -1,0 0,0 0,-1 0,-1 -1,0 -1,-1 -1,-1l0 0 0 0c0,0 -1,-1 -1,-1l0 0 0 0 0 0 0 -1 0 0 0 0 0 0c-1,0 -1,-1 -1,-2l0 0c0,0 -1,0 -1,0l0 0c0,-1 0,-1 0,-1l0 0 0 0 0 0 -1 -1 0 0c0,0 0,0 0,-1l0 0 0 0 0 0 0 0c0,0 0,-1 -1,-1l0 0 0 0 0 0 0 0 0 0 0 -1 0 0c0,0 0,0 0,-1l0 0 0 0 -1 0 0 0 0 0 0 -1 0 0 0 0 0 0c0,0 0,0 0,-1l0 0 0 0 0 0 0 0 0 0c0,0 0,-1 0,-1l-1 0c0,0 0,0 0,-1l0 0 0 0 0 0c0,0 0,0 0,-1l0 0c0,0 0,0 0,-1l0 0 0 0 0 0 0 0 0 0 -1 -1 0 0 0 0 0 0c0,0 0,0 0,-1l0 0 0 0 0 0 0 0 0 -1 0 0 0 0 0 0 0 0 0 0c0,-1 0,-2 0,-2 0,1 0,1 0,2 1,4 2,8 3,11 2,3 4,6 5,9 2,2 5,5 7,7 2,2 5,4 8,6 3,1 5,3 9,4 3,2 6,3 9,4 0,0 1,0 2,1 0,0 0,0 1,0zm-44 -44c-1,-2 -1,-3 -1,-4m0 0c0,-2 0,-4 0,-7 0,0 0,-1 0,-2l0 0 0 0 0 -1 0 0 0 0 0 0 0 0c0,0 0,-1 0,-1l0 0c0,0 0,-1 0,-1l0 0 0 0 0 0 0 -1 0 0c0,0 0,0 0,0 1,-2 1,-3 1,-5 1,-3 2,-7 4,-10 0,-1 0,-1 1,-2 0,-1 0,-1 0,-1 1,-2 2,-3 3,-5l0 0 0 0c0,0 1,-1 1,-1l0 0c0,-1 1,-2 2,-3l0 0c1,-1 2,-3 4,-4 1,-1 2,-2 3,-3l0 -1 1 0c0,0 0,0 0,0l0 0 0 0 1 -1c0,0 0,0 0,0l0 0c1,0 1,-1 1,-1l0 0 1 0c0,0 0,-1 1,-1l0 0 0 0 0 0 0 0 1 -1 0 0 0 0 0 0 0 0 1 0 0 0 0 0 0 -1 0 0 0 0 1 0 0 0 0 0 0 0 0 0 1 -1 0 0 0 0 0 0 1 0 0 0 0 0c0,-1 1,-1 1,-1l0 0 1 0 0 0 0 -1 0 0c0,0 1,0 1,0l0 0 1 0 0 0 0 0 0 -1c0,0 0,0 1,0l0 0 0 0c0,0 0,0 1,0l0 0 0 -1 0 0 0 0 1 0 0 0 0 0 0 0 1 0 0 0 0 -1 1 0 0 0 0 0 1 0 0 0 0 0 0 0 0 0 1 -1 0 0 0 0 0 0 1 0 0 0 0 0 1 0 0 0 0 0 0 -1 0 1c-5,1 -9,3 -13,5 -3,3 -7,5 -10,8 -3,3 -6,5 -8,9 -2,2 -4,5 -5,8l0 0 0 0 -1 0 0 1 0 0c0,0 0,0 0,0l0 1 0 0c0,0 0,0 -1,0l0 1 0 0 0 0c0,1 0,1 0,1l0 1 0 0 -1 0 0 0 0 0 0 0 0 1c0,0 0,0 0,0l0 0c0,1 0,1 0,1l0 0 0 1c-1,0 -1,0 -1,0l0 0 0 0 0 1 0 0 0 0c0,0 0,0 0,1l0 0 0 0 0 0 0 0 0 1 0 0 -1 0 0 0 0 1 0 0 0 0 0 0 0 0 0 0 0 1 0 0 0 0 0 0 0 0 0 1 0 0 0 0 0 0c0,0 0,1 0,1l0 0c0,0 -1,1 -1,2 0,1 0,3 0,4 0,0 0,1 0,1l0 0 0 0c0,1 0,1 0,1l0 0c0,1 0,1 0,2l0 0c0,0 0,1 0,1l0 0c0,1 0,3 0,4zm43 -61c0,0 0,0 1,0l0 0 0 0 0 0 0 0c1,0 1,0 2,-1l0 0 0 0 0 0 0 0c4,-1 7,-2 11,-2 2,-1 5,-1 9,-1 0,0 0,0 1,0l0 0 0 0 0 0c1,0 1,0 2,0 1,0 3,0 4,0 1,0 3,0 4,0l1 0 0 0 0 0 0 0 1 0 0 0 0 0 1 0 0 0 0 0 1 0 0 0 0 0c1,0 1,0 2,0l0 0 0 0c0,0 1,0 1,0 2,0 3,0 5,1l0 0m-45 3c1,0 1,-1 2,-1 1,0 1,0 1,0l0 0 0 0 0 0 1 0 0 0c0,0 0,0 1,0l0 -1 0 0 0 0 1 0 0 0 0 0 0 0 1 0 0 0 0 0 0 0 0 0 1 0 0 0 0 0 1 0 0 0 0 -1 1 0 0 0c0,0 0,0 1,0l0 0c0,0 0,0 0,0l1 0 0 0 0 0 0 0 1 0 0 0 0 0c0,0 0,0 1,0l0 0c0,0 1,0 1,0l0 -1 1 0 0 0 0 0 0 0 1 0 0 0c1,0 1,0 2,0l0 0c1,0 1,0 1,0l0 0c1,0 1,0 1,0l0 0 1 0c1,0 2,0 3,0l0 0 0 0c0,0 1,0 1,0l0 0c0,0 1,0 1,0l0 0c1,0 1,0 2,0l0 0 0 0 0 0 0 0 1 0 0 0 1 0 0 0 0 0 0 0 1 0 0 0 0 0 0 0 1 0 0 0 0 0c2,0 3,0 4,0l0 0 0 0 1 0 0 0 0 0 1 0 0 0c0,0 1,0 1,0l0 0 0 0 1 0 0 0 0 0 1 0 0 0 0 0 1 0 0 0c0,0 0,0 1,0l0 0 0 1 0 0 1 0 0 0 0 0m1 0c0,0 1,0 1,0l1 0 0 0 0 0 0 0 0 0c1,0 2,0 3,0l0 1 0 0 0 0 1 0 0 0 0 0 1 0 0 0 0 0 1 0 0 0 0 0 0 0 1 0 0 0 0 0 1 1 0 0 0 0 1 0 0 0 0 0 1 0 0 0 0 0 0 0 1 0 0 0 0 0 0 0 1 1 0 0c0,0 1,0 1,0 0,0 1,0 2,0 0,0 -1,0 -1,0l0 0 0 0 0 0 -1 0 0 0 0 0c-4,-1 -9,-2 -13,-3l-1 0c0,0 0,0 0,0l0 0 -1 0 0 0 0 0zm-15 176l0 0 0 0m15 29l0 0 0 0 0 0c1,0 1,0 2,0"/>
   </g>
   <g>
    <path id="7" class="fil1" d="M515 253l0 31 0 0 0 0 -68 0 0 174 0 0 0 0 -41 0 0 0 0 0 0 -174 -68 0 0 0 0 0 0 -31 0 0 0 0 177 0 0 0 0 0zm0 0l0 31 -68 0 0 174 -41 0 0 -174 -68 0 0 -31 177 0z"/>
   </g>
   <g>
    <path id="8" class="fil1" d="M568 378l0 80 0 0 0 0 -41 0 0 0 0 0 0 -205 0 0 0 0 68 0c5,0 9,0 14,0 -2,0 -3,0 -5,0l0 0c-2,0 -5,0 -8,0l0 0 -1 0 -68 0 0 205 41 0 0 -80 18 0c4,0 7,0 9,1 -1,0 -2,-1 -3,-1 -2,0 -4,0 -6,0l-18 0zm41 -125c1,0 2,0 4,0 -2,0 -3,0 -4,0zm4 0c1,1 2,1 3,1 4,0 8,1 11,1 0,0 -1,0 -2,0l0 0c0,0 0,0 -1,0l0 0 0 0 0 0 -1 0 0 0 0 0 -1 0 0 -1 0 0 -1 0 0 0 0 0 0 0c-1,0 -1,0 -2,0l0 0 0 0 -1 0c0,0 -1,0 -2,0l0 0c-1,0 -2,-1 -3,-1zm14 2c3,1 5,1 7,2 3,1 6,2 9,3 0,0 0,0 1,0l0 0 0 0c0,0 1,0 1,1 1,0 1,0 2,0l0 0c0,0 0,0 1,0l0 1 0 0 0 0c0,0 1,0 1,0l0 0 1 0 0 0 0 1 0 0 0 0c0,0 -1,-1 -1,-1 -1,0 -2,-1 -4,-1 0,-1 -1,-1 -1,-1 0,0 -1,0 -1,0l0 0 0 0 -1 -1 0 0 0 0 0 0c0,0 -1,0 -1,0l0 0 -1 0 0 0 0 0 0 0 -1 -1 0 0 0 0 0 0 -1 0 0 0 0 0c0,0 -1,0 -1,0l0 0 -1 0 0 0 0 -1 0 0 -1 0 0 0 -1 0 0 0 0 0 0 0 -1 0c0,0 0,0 -1,0l0 0 0 -1 0 0c0,0 -1,0 -1,0l0 0c-1,0 -2,0 -4,-1zm24 8c1,0 2,1 3,1l0 0 0 0c0,1 0,1 0,1 3,1 5,3 7,4 3,3 6,6 9,9 1,1 2,2 3,4l0 0 0 0c0,-1 -1,-1 -1,-2l0 0c0,0 -1,-1 -1,-1 0,0 0,0 0,-1 -1,0 -1,0 -1,0l0 0c0,-1 0,-1 -1,-1l0 0c0,0 0,-1 -1,-1l0 0 0 0 0 -1 0 0c0,0 -1,0 -1,-1 0,0 -1,0 -1,-1l0 0 0 0 0 0c-1,0 -1,-1 -2,-1l0 0c0,-1 0,-1 -1,-1 0,-1 -1,-1 -2,-2l0 0 0 0 -1 0 0 -1 0 0 0 0 -1 0 0 0 0 0 0 0 -1 -1 0 0c0,0 0,0 0,0l0 0 -1 0 0 0 0 -1 0 0 0 0 0 0c-1,0 -1,0 -1,0l0 0 0 0 0 -1c-1,0 -1,0 -1,0l0 0 -1 0 0 0 0 0c0,0 0,-1 0,-1l-1 0 0 0c0,0 0,0 0,0l-1 0 0 0 0 0 0 -1 0 0 -1 0 0 0c0,0 0,0 0,0zm22 19c1,1 1,2 2,3l0 0 0 0 0 0 0 0 0 0c0,1 1,1 1,2 0,0 0,0 0,0l0 0 0 1 0 0 0 0c2,4 3,7 4,11 0,1 0,1 0,2l0 0 0 0 0 0 0 0 0 1 0 0c0,0 0,0 0,0 1,1 1,1 1,1 0,0 0,0 -1,-1 0,0 0,-1 0,-1 0,-1 0,-1 0,-1l0 0 0 0 0 0 0 -1 0 0 0 0 0 0 0 0 0 0 0 -1 0 0 0 0 0 -1 -1 0 0 0 0 0 0 -1 0 0 0 0 0 -1 0 0 0 0 0 0 0 0 0 0 0 -1 0 0 0 0 -1 0 0 -1 0 0 0 0c0,0 0,-1 0,-1l0 0 0 0 0 0 0 -1 0 0 0 0 0 0 0 0 -1 0 0 -1 0 0 0 0 0 0 0 0 0 0 0 -1 0 0c0,0 0,0 0,0l0 0c0,-1 0,-1 -1,-1l0 0c0,-1 0,-1 0,-1l0 0 0 -1 0 0 0 0 -1 0 0 0 0 0 0 0 0 -1c0,0 0,0 0,0l0 0 0 0 0 -1 0 0c-1,0 -1,0 -1,-1l0 0 0 0 0 0 0 0 0 0 -1 -1 0 0c0,0 0,0 0,0zm8 22c0,0 0,0 0,0 0,0 0,0 0,0zm0 1c0,1 0,2 0,2 0,0 0,0 0,-1l0 0 0 0 0 0 0 -1 0 0 0 0zm0 3c0,0 0,0 0,0 0,0 0,0 0,0l0 0 0 0zm0 1c0,1 0,2 0,3 0,1 0,3 0,4 0,1 0,1 0,1 0,0 0,1 0,1 0,0 0,-1 0,-1 0,0 0,0 0,-1m0 3c0,0 0,0 0,1 0,-1 0,-1 0,-1zm0 1c0,0 0,0 0,1 0,-1 0,-1 0,-1zm-1 1c0,0 0,0 0,0 0,1 0,1 0,1 0,0 0,0 0,1 0,-1 0,-1 0,-1l0 0 0 -1c0,0 0,0 0,0zm0 2c0,0 0,0 0,0 0,0 0,0 0,0l0 0zm0 0c0,1 0,1 0,1 0,0 0,0 0,-1zm0 1c0,1 0,1 0,2 -1,0 -1,0 -1,0l0 1 0 0c0,0 0,1 0,1 0,-1 0,-2 1,-2l0 0 0 -1c0,0 0,0 0,0m-1 4c0,0 -1,0 -1,1m0 0c0,0 0,1 0,1 -1,2 -1,3 -2,4 0,1 0,1 -1,2 1,-1 1,-1 1,-2 0,0 0,0 1,-1l0 0 0 0 0 0 0 0c0,0 0,-1 0,-1l0 0c0,0 0,-1 0,-1 1,0 1,0 1,0l0 0 0 -1 0 0 0 0c0,0 0,-1 0,-1zm-3 7c0,0 0,1 0,1 0,0 0,-1 0,-1zm0 1c0,0 0,1 0,1 0,0 0,-1 0,-1zm-1 1c0,0 0,1 0,1 0,0 0,0 -1,1 1,-1 1,-2 1,-2zm-1 3c-2,2 -3,4 -5,6 -2,2 -4,5 -7,7 0,0 0,0 0,1 -1,0 -1,0 -2,1 -2,1 -4,3 -6,4 -3,2 -7,4 -10,5 -4,2 -7,3 -11,4 2,2 5,3 7,5 2,2 5,4 6,7l56 76 0 0 0 0 0 0 -37 0c-1,0 -2,0 -2,0 0,0 1,0 2,0l37 0 -56 -76c-2,-3 -4,-6 -7,-8l0 0c-1,0 -1,0 -1,-1l0 0c-1,0 -1,0 -2,-1l0 0c0,0 0,0 0,0l0 0c0,0 -1,0 -1,0l0 0c0,-1 0,-1 0,-1l0 0 -1 0 0 0 0 0 0 0 0 0 0 0 0 0 -1 0 0 -1 0 0 0 0 0 0 0 0 0 0c2,0 3,-1 5,-1l0 0c2,-1 4,-2 6,-3l0 0c1,0 1,0 2,-1l0 0c0,0 1,0 1,0l0 0c2,-1 5,-2 7,-4 2,-1 4,-3 6,-4 1,-1 1,-1 2,-1 2,-3 5,-5 7,-8 2,-2 3,-4 4,-6m-11 116c0,0 0,0 0,-1 -1,0 -2,0 -2,0 0,0 1,0 2,0 0,1 0,1 0,1zm-3 -1c0,0 0,0 0,0 -1,0 -1,0 -2,-1 1,1 1,1 2,1 0,0 0,0 0,0zm-2 -1c0,0 0,0 -1,0 0,0 0,0 0,0 -3,-2 -5,-3 -6,-6 0,0 -1,0 -1,0l-47 -66c-1,-2 -3,-3 -4,-4m58 76c0,0 0,0 0,0 -1,-1 -3,-2 -4,-3 -1,-1 -2,-2 -3,-3l-47 -66c-1,-1 -1,-2 -2,-3 -1,0 -2,-1 -2,-1m0 0c-1,0 -1,-1 -1,-1l0 0 0 0m0 0l0 0c0,0 -1,0 -1,0m86 -66l0 -1 0 0 0 0 0 0 0 0 0 -1 0 0 0 0 0 0 0 0 0 0c0,-1 0,-1 0,-2 0,0 0,0 0,0m-113 41l26 0c1,0 1,0 2,0 -1,0 -1,0 -2,0l-26 0 0 -68 27 0 0 0 0 0 -27 0 0 68zm28 0c1,0 2,0 3,0 -1,0 -2,0 -3,0zm4 0c1,0 1,0 2,0 -1,0 -1,0 -2,0zm3 0c0,0 0,0 1,0 -1,0 -1,0 -1,0zm1 0c0,0 1,0 1,0 0,0 -1,0 -1,0zm1 -1l0 0c1,0 1,0 1,0 0,0 0,0 -1,0zm3 0c0,0 0,0 0,0 0,0 0,0 0,0zm1 0l1 0c0,0 0,0 -1,0zm1 0c0,0 1,0 1,0 0,0 -1,0 -1,0zm2 -1c0,0 0,0 1,0 -1,0 -1,0 -1,0zm1 0c0,0 0,0 0,0 0,0 0,0 0,0zm0 0c1,0 1,0 2,-1l0 0 0 0 0 1c-1,0 -1,0 -2,0zm2 -1c0,0 1,0 1,0 0,0 -1,0 -1,0zm2 0c0,0 0,0 1,0 -1,0 -1,0 -1,0zm2 -1c0,0 1,0 1,0 0,0 -1,0 -1,0zm2 -1c0,0 0,0 1,0 -1,0 -1,0 -1,0zm1 0l0 0c0,0 0,0 0,0zm3 -2c0,0 1,0 1,0 0,0 -1,0 -1,0zm1 0c0,-1 1,-1 1,-1 0,0 -1,0 -1,1zm1 -1c1,-1 2,-1 2,-2 2,-2 4,-3 5,-5l0 0c-1,2 -3,3 -5,5 0,1 -1,1 -2,2zm7 -7c1,-1 1,-1 1,-1 0,0 0,0 -1,1zm1 -1c0,-1 1,-1 1,-2 0,1 -1,1 -1,2zm1 -2c1,-1 1,-2 2,-3l0 0 0 0c0,-2 1,-3 1,-4 0,0 0,-1 0,-1 0,0 0,0 0,-1m-1 6l0 0 0 0c0,-1 0,-1 0,-2 0,0 0,0 1,-1 0,0 0,0 0,-1 0,0 0,0 0,0 0,0 0,-1 0,-1m1 -1c0,0 0,-1 0,-1 0,-2 0,-3 0,-5 0,2 0,3 0,5l0 0c0,0 0,1 0,1zm0 -6c0,-1 0,-1 0,-2 0,1 0,1 0,1 0,0 0,0 0,1zm0 -2l0 -1 0 0 0 0 0 1zm0 -6l0 0 0 0 0 0zm-1 -6l-1 -1 0 1 1 0zm-1 -1l0 -1 0 0 0 1zm-1 -2l0 0 0 0 0 0zm0 0l0 -1 0 1 0 0zm0 -1l0 0 0 0 0 0zm-1 -1l0 -1 0 0 0 1zm-7 -7l0 -1 0 0 0 0 0 1zm-19 -8l-1 0 0 0 0 0 1 0z"/>
   </g>
   <g>
    <path id="9" class="fil1" d="M838 253l0 30 0 0 0 0 -99 0 0 57 78 0 0 0 0 0 0 29 0 0 0 0 -78 0 0 58 99 0 0 0 0 0 0 31 0 0 0 0 -141 0 0 0 0 0 0 -205 0 0 0 0 141 0 0 0 0 0zm0 0l0 30 -99 0 0 57 78 0 0 29 -78 0 0 58 99 0 0 31 -141 0 0 -205 141 0z"/>
   </g>
   <g>
    <path id="10" class="fil1" d="M996 253l0 30 0 0 0 0 -99 0 0 57 78 0 0 0 0 0 0 29 0 0 0 0 -78 0 0 58 99 0 0 0 0 0 0 31 0 0 0 0 -141 0 0 0 0 0 0 -205 0 0 0 0 141 0 0 0 0 0zm0 0l0 30 -99 0 0 57 78 0 0 29 -78 0 0 58 99 0 0 31 -141 0 0 -205 141 0z"/>
   </g>
   <g>
    <path id="11" class="fil1" d="M1162 253l0 31 0 0 0 0 -67 0 0 174 0 0 0 0 -42 0 0 0 0 0 0 -174 -67 0 0 0 0 0 0 -31 0 0 0 0 176 0 0 0 0 0zm0 0l0 31 -67 0 0 174 -42 0 0 -174 -67 0 0 -31 176 0z"/>
   </g>
   <path id="text18" class="fil0" d="M1762 448c9,0 17,-2 25,-5 7,-4 13,-8 18,-14 5,-6 9,-13 12,-21 2,-9 3,-17 3,-27l0 -124 14 0 0 124c0,11 -1,22 -5,31 -3,10 -8,18 -14,25 -6,8 -14,13 -23,17 -9,4 -19,6 -30,6 -11,0 -21,-2 -30,-6 -9,-4 -17,-9 -23,-17 -6,-7 -11,-15 -15,-25 -3,-9 -5,-20 -5,-31l0 -124 14 0 0 124c0,10 2,18 4,26 3,9 7,16 12,21 5,6 11,11 18,15 8,3 16,5 25,5z"/>
   <path id="1" class="fil0" d="M2002 282c-1,1 -2,2 -4,2 -1,0 -2,-1 -4,-2 -2,-2 -5,-4 -8,-6 -3,-2 -7,-4 -12,-6 -4,-2 -10,-3 -17,-3 -7,0 -13,1 -18,3 -6,2 -10,5 -14,9 -3,3 -6,8 -8,12 -2,5 -3,10 -3,15 0,7 2,13 5,17 2,4 6,8 10,11 5,3 10,6 16,8 6,2 11,4 17,6 6,3 12,5 18,7 6,3 11,6 15,10 5,4 9,8 11,14 3,5 4,12 4,20 0,9 -1,17 -4,24 -2,7 -7,14 -12,19 -5,6 -11,10 -19,13 -7,3 -16,5 -26,5 -12,0 -23,-2 -32,-7 -9,-5 -17,-11 -24,-19l4 -6c1,-2 2,-3 3,-3 1,0 2,1 3,2 2,1 3,3 5,4 2,2 4,4 7,6 2,2 5,3 8,5 4,2 7,3 12,4 4,1 9,2 15,2 7,0 14,-1 20,-4 6,-2 11,-5 15,-10 4,-4 7,-9 9,-14 2,-6 3,-12 3,-19 0,-7 -1,-13 -4,-17 -2,-5 -6,-9 -11,-12 -4,-3 -9,-5 -15,-7 -6,-2 -12,-4 -18,-6 -6,-2 -11,-5 -17,-7 -6,-3 -11,-6 -16,-10 -4,-3 -8,-8 -10,-14 -3,-6 -5,-13 -5,-21 0,-7 2,-13 4,-20 3,-6 6,-11 11,-16 4,-5 10,-9 17,-12 7,-3 15,-4 24,-4 10,0 19,2 26,5 8,3 15,8 22,15l-3 7z"/>
   <polygon id="2" class="fil0" points="2087,458 2073,458 2073,257 2087,257 "/>
   <path id="3" class="fil0" d="M2305 424c1,0 2,0 2,1l6 6c-4,5 -9,9 -13,12 -5,4 -10,7 -16,9 -5,3 -11,5 -18,6 -6,1 -14,2 -22,2 -13,0 -25,-2 -36,-7 -11,-5 -21,-12 -28,-21 -8,-9 -15,-20 -19,-32 -4,-13 -7,-27 -7,-43 0,-15 3,-29 7,-41 5,-13 11,-24 19,-33 9,-9 19,-16 30,-21 12,-5 24,-7 38,-7 7,0 13,1 19,2 6,1 11,2 16,4 5,2 10,5 14,8 5,3 9,6 13,10l-4 7c-1,1 -2,1 -3,1 -1,0 -2,0 -3,-1 -2,-1 -3,-2 -5,-4 -2,-1 -4,-3 -7,-5 -3,-1 -6,-3 -10,-4 -4,-2 -8,-3 -13,-4 -5,-1 -11,-2 -17,-2 -11,0 -22,3 -32,7 -10,4 -18,10 -25,18 -7,8 -12,17 -16,28 -4,11 -6,24 -6,37 0,15 2,27 5,38 4,12 10,21 17,29 6,7 15,13 24,17 9,5 19,7 30,7 7,0 13,-1 18,-2 6,-1 11,-2 15,-4 5,-2 9,-4 13,-7 4,-3 8,-6 11,-10 1,0 1,0 2,-1 0,0 0,0 1,0z"/>
   <path id="path42" class="fil2" d="M1274 91l-17 257 -16 240 -5 1 -198 -80 0 0c-2,-1 -4,-1 -7,-1l0 0 -202 5 -203 5 -202 7c-68,2 -136,5 -203,8l0 0c67,2 135,3 203,4l0 0 202 3 203 3 199 1 197 83c3,1 6,2 10,1l0 0 0 0 27 -2c9,-1 17,-9 18,-18l0 0 0 -1 19 -256 17 -234 6 0 109 250 0 0c3,5 8,10 14,11l0 0 39 11 0 0 1 1c11,2 22,-4 25,-16l0 0 34 -133 7 2c27,111 54,222 81,333l0 0 0 1c1,1 1,3 2,4l0 0 17 26 1 1 0 0c5,7 13,8 20,3l0 0 130 -94c70,7 139,12 209,18l0 0 107 9 107 8 -106 -15 -106 -15c-71,-9 -142,-19 -213,-28l0 0c-3,-1 -5,0 -8,2l0 0 0 0 -124 83 -7 -12c-25,-115 -49,-230 -75,-345l0 0c-1,-7 -7,-13 -15,-15l0 0 0 0 -38 -8c-10,-2 -20,4 -23,14l0 0 0 0 -35 130 -9 -3 -109 -252c-3,-7 -10,-12 -18,-13l0 0 -41 -4 0 0 -1 0c0,0 -1,0 -1,0l0 0c-12,0 -21,8 -22,20m0 0l0 0 0 0z"/>
   <polygon id="text46" class="fil3" points="261,721 261,727 232,727 232,806 226,806 226,727 198,727 198,721 "/>
   <path id="1" class="fil3" d="M352 802c3,0 7,-1 10,-2 3,-2 6,-3 8,-6 2,-3 4,-5 5,-9 1,-3 1,-7 1,-11l0 -53 6 0 0 53c0,5 -1,9 -2,13 -1,4 -3,8 -6,11 -3,3 -6,5 -10,7 -3,2 -8,2 -12,2 -5,0 -9,0 -13,-2 -4,-2 -7,-4 -10,-7 -2,-3 -4,-7 -6,-11 -1,-4 -2,-8 -2,-13l0 -53 6 0 0 53c0,4 1,8 2,11 1,3 2,6 5,9 2,2 4,4 7,6 3,1 7,2 11,2z"/>
   <path id="2" class="fil3" d="M464 768l0 38 -6 0 0 -85 20 0c10,0 17,2 21,6 5,4 7,9 7,17 0,3 -1,6 -2,9 -1,2 -2,5 -4,7 -2,2 -5,3 -7,5 -3,1 -6,2 -10,2 1,1 2,2 3,3l27 36 -5 0c0,0 -1,0 -1,0 -1,0 -1,-1 -2,-1l-25 -35c-1,0 -2,-1 -2,-1 -1,-1 -2,-1 -4,-1l-10 0zm0 -4l14 0c3,0 6,-1 9,-2 3,-1 5,-2 7,-4 2,-1 4,-3 5,-6 1,-2 1,-5 1,-8 0,-6 -2,-10 -5,-13 -4,-3 -10,-5 -17,-5l-14 0 0 38z"/>
   <path id="3" class="fil3" d="M569 721c1,0 1,1 1,1 1,0 1,0 1,1l52 73c0,-1 0,-2 0,-3l0 -72 5 0 0 85 -3 0c0,0 -1,0 -2,-1l-52 -73c0,1 0,2 0,3l0 71 -5 0 0 -85 3 0z"/>
   <path id="4" class="fil3" d="M804 802c3,0 7,-1 10,-2 3,-2 6,-3 8,-6 2,-3 3,-5 5,-9 1,-3 1,-7 1,-11l0 -53 6 0 0 53c0,5 -1,9 -2,13 -1,4 -3,8 -6,11 -3,3 -6,5 -10,7 -4,2 -8,2 -12,2 -5,0 -9,0 -13,-2 -4,-2 -7,-4 -10,-7 -2,-3 -4,-7 -6,-11 -1,-4 -2,-8 -2,-13l0 -53 6 0 0 53c0,4 1,8 2,11 1,3 2,6 4,9 3,2 5,4 8,6 3,1 7,2 11,2z"/>
   <path id="5" class="fil3" d="M903 772l0 34 -6 0 0 -85 21 0c9,0 17,3 21,7 5,4 8,11 8,19 0,3 -1,7 -2,10 -2,3 -4,6 -6,8 -3,2 -6,4 -9,5 -4,2 -8,2 -12,2l-15 0zm0 -5l15 0c4,0 7,0 10,-1 2,-1 5,-3 7,-5 2,-1 3,-4 4,-6 1,-3 2,-5 2,-8 0,-7 -2,-12 -6,-15 -4,-4 -9,-6 -17,-6l-15 0 0 41z"/>
   <path id="6" class="fil3" d="M1081 770l0 35 -6 0 0 -35 -29 -50 5 0c0,0 1,0 1,1 0,0 1,0 1,1l23 39c1,1 1,2 1,2 1,1 1,2 1,3 1,-1 1,-2 1,-3 1,0 1,-1 2,-2l23 -39c0,-1 0,-1 1,-1 0,-1 0,-1 1,-1l5 0 -30 50z"/>
   <path id="7" class="fil3" d="M1214 765c0,7 -1,13 -3,18 -2,5 -4,10 -8,14 -3,3 -7,6 -12,8 -4,2 -10,4 -15,4 -6,0 -11,-2 -16,-4 -5,-2 -9,-5 -12,-8 -3,-4 -6,-9 -8,-14 -2,-5 -3,-11 -3,-18 0,-6 1,-12 3,-18 2,-5 5,-10 8,-13 3,-4 7,-7 12,-9 5,-2 10,-3 16,-3 5,0 11,1 15,3 5,2 9,5 12,9 4,3 6,8 8,13 2,6 3,12 3,18zm-6 0c0,-6 -1,-11 -2,-16 -2,-5 -4,-9 -7,-12 -3,-3 -6,-6 -10,-7 -4,-2 -8,-3 -13,-3 -5,0 -9,1 -13,3 -4,1 -8,4 -11,7 -3,3 -5,7 -6,12 -2,5 -3,10 -3,16 0,6 1,11 3,16 1,5 3,9 6,12 3,3 7,6 11,8 4,1 8,2 13,2 5,0 9,-1 13,-2 4,-2 7,-5 10,-8 3,-3 5,-7 7,-12 1,-5 2,-10 2,-16z"/>
   <path id="8" class="fil3" d="M1296 802c4,0 8,-1 11,-2 3,-2 5,-3 8,-6 2,-3 3,-5 4,-9 2,-3 2,-7 2,-11l0 -53 6 0 0 53c0,5 -1,9 -2,13 -2,4 -4,8 -6,11 -3,3 -6,5 -10,7 -4,2 -8,2 -13,2 -4,0 -8,0 -12,-2 -4,-2 -7,-4 -10,-7 -2,-3 -5,-7 -6,-11 -1,-4 -2,-8 -2,-13l0 -53 6 0 0 53c0,4 0,8 2,11 1,3 2,6 4,9 2,2 5,4 8,6 3,1 7,2 10,2z"/>
   <path id="9" class="fil3" d="M1386 768l0 38 -6 0 0 -85 20 0c10,0 17,2 21,6 5,4 7,9 7,17 0,3 0,6 -2,9 -1,2 -2,5 -4,7 -2,2 -4,3 -7,5 -3,1 -6,2 -10,2 1,1 2,2 3,3l27 36 -5 0c0,0 -1,0 -1,0 -1,0 -1,-1 -1,-1l-26 -35c-1,0 -2,-1 -2,-1 -1,-1 -2,-1 -4,-1l-10 0zm0 -4l14 0c3,0 6,-1 9,-2 3,-1 5,-2 7,-4 2,-1 4,-3 5,-6 1,-2 1,-5 1,-8 0,-6 -1,-10 -5,-13 -4,-3 -9,-5 -17,-5l-14 0 0 38z"/>
   <path id="10" class="fil3" d="M1618 778c0,5 -1,9 -2,13 -1,3 -3,6 -5,9 -2,2 -5,4 -8,5 -3,2 -6,2 -10,2 -1,0 -3,0 -5,0 -2,0 -3,-1 -5,-1 0,-1 0,-2 0,-2 0,-1 0,-1 0,-2 0,0 0,0 1,-1 0,0 0,0 1,0 0,0 0,0 1,0 0,0 1,0 2,1 0,0 1,0 2,0 1,0 2,0 3,0 3,0 5,0 8,-1 2,-1 4,-3 6,-5 1,-2 2,-4 3,-7 1,-3 2,-7 2,-11l0 -57 6 0 0 57z"/>
   <path id="11" class="fil3" d="M1734 764c0,6 -1,12 -2,18 -2,5 -5,10 -8,13 -4,4 -8,7 -12,9 -5,2 -10,3 -16,3 -6,0 -11,-1 -15,-3 -5,-2 -9,-5 -13,-9 -3,-3 -6,-8 -7,-13 -2,-6 -3,-12 -3,-18 0,-7 1,-13 3,-18 1,-5 4,-10 7,-14 4,-3 8,-6 13,-8 4,-2 9,-3 15,-3 6,0 11,1 16,3 4,2 8,5 12,8 3,4 6,9 8,14 1,5 2,11 2,18zm-6 0c0,-6 0,-11 -2,-16 -2,-5 -4,-9 -7,-12 -2,-3 -6,-6 -10,-8 -4,-1 -8,-2 -13,-2 -5,0 -9,1 -13,2 -4,2 -7,5 -10,8 -3,3 -5,7 -7,12 -1,5 -2,10 -2,16 0,6 1,11 2,16 2,5 4,9 7,12 3,3 6,6 10,7 4,2 8,3 13,3 5,0 9,-1 13,-3 4,-1 8,-4 10,-7 3,-3 5,-7 7,-12 2,-5 2,-10 2,-16z"/>
   <path id="12" class="fil3" d="M1801 802c4,0 7,-1 10,-2 3,-2 6,-3 8,-6 2,-3 4,-5 5,-9 1,-3 2,-7 2,-11l0 -53 5 0 0 53c0,5 0,9 -2,13 -1,4 -3,8 -6,11 -2,3 -6,5 -9,7 -4,2 -8,2 -13,2 -5,0 -9,0 -13,-2 -4,-2 -7,-4 -9,-7 -3,-3 -5,-7 -6,-11 -2,-4 -3,-8 -3,-13l0 -53 6 0 0 53c0,4 1,8 2,11 1,3 3,6 5,9 2,2 5,4 8,6 3,1 6,2 10,2z"/>
   <path id="13" class="fil3" d="M1886 770l0 39 -6 0 0 -85 20 0c10,0 17,2 21,6 5,3 7,9 7,16 0,3 -1,6 -2,9 -1,3 -2,5 -4,7 -2,2 -5,4 -7,5 -3,1 -6,2 -10,3 1,0 2,1 3,2l27 37 -5 0c0,0 -1,0 -1,-1 -1,0 -1,0 -2,-1l-25 -34c-1,-1 -2,-2 -2,-2 -1,0 -2,-1 -4,-1l-10 0zm0 -4l14 0c3,0 6,0 9,-1 3,-1 5,-3 7,-4 2,-2 4,-4 5,-6 1,-3 1,-5 1,-8 0,-6 -2,-11 -5,-14 -4,-3 -9,-4 -17,-4l-14 0 0 37z"/>
   <path id="14" class="fil3" d="M1979 724c0,0 0,0 1,0 0,0 0,1 1,1l52 74c0,-2 0,-3 0,-4l0 -71 5 0 0 85 -3 0c-1,0 -2,-1 -2,-1l-52 -74c0,1 0,2 0,3l0 72 -5 0 0 -85 3 0z"/>
   <polygon id="15" class="fil3" points="2152,721 2152,727 2109,727 2109,761 2145,761 2145,766 2109,766 2109,801 2152,801 2152,806 2103,806 2103,721 "/>
   <path id="16" class="fil3" d="M2257 770l0 35 -6 0 0 -35 -30 -50 5 0c1,0 1,0 1,1 1,0 1,0 1,1l23 39c1,1 1,2 2,2 0,1 0,2 1,3 0,-1 0,-2 1,-3 0,0 1,-1 1,-2l23 -39c0,-1 1,-1 1,-1 0,-1 1,-1 1,-1l5 0 -29 50z"/>
  </g>
 </g>
</svg>
